<?xml version="1.0" standalone="no"?>
<!DOCTYPE svg PUBLIC "-//W3C//DTD SVG 20010904//EN"
 "http://www.w3.org/TR/2001/REC-SVG-20010904/DTD/svg10.dtd">
<svg version="1.0" xmlns="http://www.w3.org/2000/svg"
 width="1098.000000pt" height="1280.000000pt" viewBox="0 0 1098.000000 1280.000000"
 preserveAspectRatio="xMidYMid meet">
<g transform="translate(0.000000,1280.000000) scale(0.100000,-0.100000)"
fill="#000000" stroke="none">
<path d="M4420 12600 c-8 -15 -8 -20 3 -20 14 0 37 19 37 32 0 16 -30 7 -40
-12z"/>
<path d="M4514 12485 c-8 -20 -21 -38 -29 -42 -8 -3 -15 -13 -15 -22 0 -10
-12 -29 -27 -42 -31 -29 -158 -119 -167 -119 -3 0 -6 9 -6 20 0 18 -4 17 -45
-12 -36 -25 -47 -29 -59 -19 -16 13 -32 -1 -21 -19 3 -5 2 -17 -2 -25 -13 -22
-75 -65 -85 -59 -5 4 -25 -2 -44 -12 -27 -15 -38 -16 -52 -7 -14 8 -26 7 -51
-3 -18 -8 -40 -14 -48 -14 -9 0 -58 -20 -111 -45 -165 -78 -195 -52 -49 43 95
62 236 142 250 142 14 0 7 -24 -15 -48 -20 -21 -20 -24 -5 -19 10 4 23 7 28 7
5 0 9 6 9 14 0 14 80 92 116 112 10 7 16 15 12 19 -4 4 -22 -4 -41 -17 -18
-14 -77 -45 -131 -68 -55 -23 -106 -46 -115 -50 -9 -5 -41 -16 -71 -24 -115
-31 -370 -170 -488 -265 -34 -28 -70 -51 -80 -51 -10 0 -29 -12 -43 -26 -29
-31 -76 -57 -89 -49 -18 11 -11 42 15 66 13 13 25 29 25 34 0 6 27 37 60 70
34 33 67 72 74 87 14 26 13 27 -27 34 -40 6 -43 5 -81 -37 -36 -41 -132 -153
-177 -207 -14 -16 -26 -21 -42 -17 -16 4 -29 0 -41 -14 -21 -23 -46 -28 -46
-8 0 17 96 134 120 147 11 6 20 19 20 29 0 11 21 37 48 60 26 23 38 38 27 35
-11 -4 -30 -16 -41 -26 -12 -11 -28 -20 -36 -22 -17 -2 -114 -79 -139 -109
-12 -14 -29 -19 -67 -20 -48 -1 -51 -2 -65 -36 -37 -96 -153 -341 -159 -341
-13 0 -9 31 13 105 11 39 22 95 23 126 3 44 15 82 55 164 28 59 51 111 51 116
0 26 -20 -1 -60 -82 -25 -50 -55 -98 -67 -106 -12 -8 -25 -27 -28 -43 -3 -15
-15 -36 -25 -45 -32 -29 -82 -278 -95 -475 -6 -93 -30 -243 -41 -261 -3 -5
-11 -9 -17 -9 -7 0 -39 -11 -71 -25 -59 -24 -60 -24 -90 -6 -81 50 -274 68
-366 36 -39 -14 -46 -13 -84 4 -91 40 -235 56 -371 42 -23 -3 -73 5 -120 18
-55 16 -127 25 -230 31 -82 4 -175 15 -205 24 -30 8 -113 22 -185 31 -71 9
-181 25 -243 36 -63 11 -116 18 -119 16 -6 -7 227 -80 337 -106 47 -11 123
-36 170 -56 80 -35 253 -85 289 -85 10 0 55 -20 102 -44 104 -55 183 -81 275
-94 57 -8 81 -17 121 -46 89 -64 234 -115 325 -116 29 0 47 -9 85 -42 44 -38
154 -98 203 -111 19 -5 20 -10 15 -54 -5 -32 -1 -70 10 -112 12 -46 15 -82 10
-123 -8 -63 -3 -70 24 -36 l18 22 16 -25 c14 -21 15 -43 6 -174 -7 -98 -15
-153 -23 -160 -20 -16 -46 -104 -39 -136 4 -22 2 -29 -9 -29 -11 0 -17 -16
-22 -57 -6 -51 -4 -59 19 -83 38 -39 37 -48 -59 -565 -19 -104 -38 -224 -42
-265 -12 -143 24 -232 126 -308 25 -18 71 -53 102 -78 75 -60 98 -65 200 -48
92 16 160 45 237 102 63 46 86 86 77 133 -24 125 -24 126 50 242 39 60 76 107
84 107 9 0 41 -41 75 -96 l59 -95 2 -164 2 -163 -114 -148 c-242 -315 -346
-475 -385 -595 -21 -65 -24 -92 -23 -214 0 -77 4 -197 8 -267 5 -98 4 -128 -5
-128 -7 0 -49 26 -93 58 -114 82 -138 95 -251 136 -55 20 -113 42 -129 48 -16
7 -93 54 -170 106 -228 153 -328 190 -489 180 -97 -6 -146 -28 -218 -95 -52
-49 -89 -117 -108 -198 -16 -67 -18 -198 -7 -435 8 -184 7 -205 -18 -378 -16
-108 -42 -233 -63 -305 -21 -74 -38 -156 -42 -208 l-6 -86 -66 -74 c-117 -130
-242 -253 -304 -300 -37 -27 -102 -97 -168 -179 -59 -74 -161 -189 -226 -255
-136 -138 -137 -140 -145 -330 -3 -77 -12 -137 -30 -202 -14 -51 -26 -102 -26
-114 0 -36 46 -87 84 -94 94 -18 303 82 433 208 49 48 53 54 64 124 6 40 18
78 25 84 8 7 14 30 14 56 0 30 5 45 15 49 8 4 15 12 15 20 0 17 39 54 57 54
11 0 10 -6 -2 -31 -20 -37 -16 -104 5 -104 12 0 14 10 12 47 -4 44 -2 49 23
58 38 14 38 14 57 -31 19 -46 38 -44 38 4 0 55 26 121 65 162 20 22 44 52 53
68 19 32 42 35 49 7 3 -11 9 -20 14 -20 13 0 187 163 188 176 1 7 10 22 20 35
l19 24 81 -28 c44 -16 97 -29 117 -29 26 0 60 -14 113 -45 128 -76 192 -106
204 -94 29 29 13 210 -41 446 l-27 120 -59 35 c-69 42 -101 91 -74 113 9 6 18
21 20 31 2 15 36 31 161 73 175 58 287 84 482 109 72 9 200 34 285 56 145 38
161 40 252 34 80 -5 118 -2 225 19 138 28 381 50 416 39 12 -4 54 -36 92 -73
107 -101 864 -615 1025 -696 259 -130 617 -212 1080 -245 139 -10 180 -9 395
11 309 29 518 31 598 5 32 -11 66 -30 77 -43 10 -13 23 -56 30 -96 15 -92 53
-236 82 -307 17 -42 23 -80 26 -160 7 -236 5 -353 -12 -510 -14 -137 -15 -187
-7 -289 16 -173 82 -471 186 -832 37 -126 55 -206 55 -243 0 -44 -17 -103 -80
-282 -44 -124 -87 -239 -96 -256 -20 -39 -271 -439 -337 -538 -28 -41 -85
-111 -127 -155 -93 -99 -138 -155 -175 -220 -37 -66 -195 -220 -233 -228 -16
-3 -69 -36 -118 -72 -84 -63 -93 -73 -155 -179 -50 -86 -63 -116 -55 -128 8
-13 -2 -31 -45 -85 -120 -147 -119 -162 16 -198 131 -34 511 -12 543 32 7 10
37 55 66 101 46 70 54 91 59 145 6 63 23 117 37 117 4 0 7 -33 6 -72 0 -43 3
-73 9 -73 6 0 15 -3 21 -7 6 -4 15 11 22 37 6 25 32 76 57 115 34 54 54 74 85
87 23 10 40 25 40 34 0 9 10 24 21 35 20 17 22 18 32 3 9 -14 21 -3 79 65 81
97 134 198 149 286 12 66 33 120 47 120 5 0 13 -5 20 -12 9 -9 12 -6 12 14 0
30 18 47 30 28 11 -18 30 20 30 62 0 46 10 78 25 78 6 0 17 -10 23 -22 9 -20
11 -18 11 21 1 25 11 65 23 90 33 68 385 593 463 691 99 124 109 150 102 279
-3 58 -11 151 -18 206 -12 107 -6 362 9 377 11 11 117 -79 174 -148 143 -173
170 -374 129 -964 -24 -346 -31 -391 -72 -475 -17 -33 -37 -91 -45 -129 -21
-100 -71 -158 -159 -184 -52 -15 -279 -163 -298 -194 -43 -72 -96 -171 -86
-160 18 17 29 15 29 -5 0 -10 -47 -69 -105 -131 -58 -61 -105 -117 -105 -123
0 -35 191 -69 431 -76 l186 -6 56 49 c30 27 58 56 61 65 8 20 77 52 102 47 14
-3 18 -11 16 -31 -1 -15 1 -27 7 -27 16 0 31 61 31 127 0 64 0 64 28 61 16 -2
31 -12 37 -25 5 -13 15 -23 22 -23 7 0 14 -12 14 -27 2 -27 2 -27 6 -3 11 58
65 196 84 212 30 26 68 85 87 136 9 25 22 47 28 49 12 4 24 -27 24 -65 0 -13
4 -21 8 -18 5 3 12 46 15 96 4 50 13 103 21 118 7 15 16 47 20 72 4 24 13 51
21 60 7 8 15 37 17 63 2 26 8 46 13 45 6 -2 10 -49 10 -115 0 -108 7 -127 20
-52 4 21 12 45 20 55 9 13 10 26 3 46 -6 17 -6 38 0 55 10 31 -7 107 -53 226
-17 45 -22 74 -17 84 8 13 14 9 35 -19 15 -19 40 -61 57 -94 16 -32 30 -50 30
-40 0 11 -25 70 -55 131 -55 112 -63 135 -47 135 14 0 36 -30 76 -102 40 -73
78 -111 84 -83 4 19 -49 115 -93 170 -49 60 -95 140 -95 164 0 31 26 26 40 -8
13 -33 46 -71 60 -71 6 0 -13 34 -42 74 l-51 75 23 248 c15 166 30 278 46 338
13 50 27 124 30 166 8 93 -7 131 -94 240 -106 134 -171 239 -277 449 -57 113
-124 231 -149 264 -25 32 -46 62 -46 67 0 4 15 19 33 32 367 269 562 460 729
717 171 262 262 516 317 884 12 76 26 145 33 153 28 34 144 -11 201 -78 76
-89 88 -220 36 -405 -17 -60 -70 -262 -119 -449 -100 -382 -111 -417 -167
-530 -83 -164 -143 -404 -143 -573 0 -99 -13 -189 -49 -337 -63 -261 -101
-770 -59 -796 5 -4 13 -31 17 -60 6 -43 9 -49 15 -31 13 38 26 14 26 -47 0
-79 14 -156 55 -291 106 -356 128 -451 107 -464 -15 -9 -21 3 -47 113 -30 123
-95 325 -102 317 -3 -3 2 -33 11 -68 9 -35 28 -139 42 -233 14 -93 27 -172 29
-176 9 -13 65 -281 65 -307 0 -15 4 -32 10 -38 5 -5 18 -57 27 -114 17 -102
18 -103 21 -50 2 30 7 59 11 63 4 4 4 31 -1 60 -6 29 -8 69 -5 90 3 23 -3 66
-14 105 -11 39 -19 94 -18 132 1 36 0 71 -2 79 -2 7 1 15 7 18 23 8 103 -164
88 -189 -10 -16 7 -48 26 -48 32 0 31 15 -7 88 -27 53 -37 86 -38 125 -2 57
-18 98 -37 94 -19 -4 -140 357 -145 433 -8 123 -8 155 2 158 12 5 85 -251 79
-275 -3 -10 11 -65 29 -123 28 -85 39 -106 56 -108 15 -2 24 -15 32 -45 13
-50 72 -213 101 -279 12 -25 18 -53 15 -62 -7 -18 97 -236 113 -236 16 0 12
26 -12 75 -22 45 -20 67 5 47 16 -14 27 -6 27 20 0 27 11 22 48 -22 35 -42 75
-125 98 -200 33 -113 103 -302 116 -318 29 -33 68 -109 68 -132 0 -13 11 -37
24 -54 29 -38 60 -99 96 -187 31 -77 79 -163 87 -155 3 2 -3 27 -12 55 -9 28
-14 59 -10 70 4 12 -6 43 -24 80 -50 97 -88 261 -62 261 12 0 86 -116 106
-167 11 -26 24 -43 34 -43 9 0 29 -18 45 -40 17 -22 33 -40 37 -40 14 0 16 40
3 51 -19 16 -18 59 1 59 21 0 20 3 -30 78 -41 60 -56 102 -38 102 4 0 41 -35
83 -77 64 -66 81 -90 109 -160 18 -45 39 -87 47 -94 12 -10 13 -8 6 12 -14 35
-19 183 -7 188 12 4 42 -68 50 -124 l7 -40 15 35 c13 32 13 40 -3 85 -9 28
-24 60 -32 73 -22 34 -2 48 30 23 31 -25 64 -107 73 -181 10 -88 15 -102 31
-89 11 9 18 8 32 -3 36 -32 45 -29 14 4 -18 19 -36 48 -41 64 -15 52 -23 151
-13 158 19 12 89 -48 132 -115 25 -38 48 -69 52 -69 4 0 8 12 10 27 4 38 22
39 39 1 9 -21 22 -34 37 -36 26 -4 26 -4 7 42 -12 28 -21 36 -40 36 -14 0 -25
4 -25 8 0 5 -16 34 -35 66 -34 57 -45 96 -25 96 20 0 79 -62 90 -95 6 -19 20
-37 31 -40 10 -4 32 -18 49 -31 16 -14 34 -23 40 -19 5 3 20 1 32 -6 17 -9 14
-1 -17 42 -21 30 -51 68 -66 84 -33 36 -72 123 -66 147 3 9 -1 22 -9 29 -25
20 -88 132 -86 153 0 10 -6 32 -14 47 -7 15 -14 37 -14 48 0 28 -93 280 -145
391 -70 151 -167 510 -138 510 12 0 36 -63 83 -213 20 -62 36 -97 43 -94 27 9
-4 119 -71 258 -65 134 -81 179 -64 179 6 0 30 -28 55 -63 25 -35 52 -69 61
-76 13 -11 14 -9 7 16 -15 47 -24 66 -50 107 -18 28 -22 41 -13 44 20 6 14 28
-12 40 -23 10 -96 138 -96 168 0 22 27 16 44 -8 9 -12 16 -17 16 -10 0 19 -31
92 -40 92 -16 0 -34 64 -50 181 -6 42 -18 81 -28 92 -14 16 -17 39 -15 151 1
72 6 172 12 221 6 50 11 180 11 290 0 116 6 251 15 320 13 106 13 126 -1 194
-22 105 -42 299 -54 536 -12 224 -28 316 -97 553 -25 86 -53 207 -63 268 -10
61 -23 128 -30 150 -21 66 -78 171 -124 232 -87 113 -261 263 -396 342 -92 54
-139 95 -307 273 -309 326 -799 774 -900 821 -121 58 -276 107 -702 221 -156
42 -298 83 -315 92 -31 17 -36 19 -68 21 -9 1 -32 23 -50 50 -18 26 -60 76
-93 112 -61 65 -122 171 -110 190 4 6 -3 27 -14 46 -27 45 -27 57 2 48 21 -6
21 -6 5 13 -10 11 -18 25 -18 31 0 18 42 14 70 -5 18 -13 13 -3 -17 36 -48 60
-52 71 -24 71 39 0 71 -20 87 -54 11 -23 22 -32 32 -29 8 4 22 -3 31 -14 28
-34 94 -78 112 -75 10 2 40 -6 66 -17 l48 -21 -30 22 c-47 34 -115 109 -115
127 0 9 -7 25 -15 35 -8 11 -15 30 -15 43 0 16 -8 27 -27 34 -52 20 -86 69
-48 69 20 0 19 4 -9 60 -13 27 -22 51 -19 54 4 3 19 6 35 6 32 0 38 16 8 25
-10 3 -31 20 -45 37 -33 39 -22 54 29 40 20 -6 36 -8 36 -5 0 9 -58 63 -68 63
-11 0 -92 90 -92 103 0 17 33 5 58 -22 28 -30 65 -47 95 -42 10 1 31 -9 48
-23 17 -15 35 -24 40 -20 16 9 10 18 -26 42 -19 12 -35 28 -35 36 0 8 -12 18
-27 24 -51 18 -198 157 -215 203 -5 14 -29 40 -53 57 -40 28 -60 62 -37 62 22
0 150 -105 262 -214 25 -25 59 -55 74 -67 l29 -23 -32 44 c-57 79 0 72 104
-13 28 -23 42 -32 33 -21 -9 10 -19 31 -23 46 -9 35 -44 66 -80 70 -26 3 -40
18 -101 110 -51 76 -73 118 -77 149 -3 24 -5 45 -3 46 6 7 129 -41 160 -62 28
-19 36 -21 40 -9 3 8 -6 20 -23 29 -16 8 -31 21 -35 30 -10 26 23 30 52 6 47
-38 72 -47 83 -30 15 23 10 33 -22 51 -41 24 -28 41 25 33 57 -10 76 -22 76
-49 0 -20 11 -26 85 -50 60 -19 90 -34 101 -51 17 -26 12 -45 -12 -45 -26 0
-14 -20 26 -40 21 -11 52 -37 67 -57 57 -76 131 -133 89 -69 -19 29 -21 56 -5
56 7 0 64 -54 128 -120 114 -117 158 -153 107 -87 -14 17 -44 49 -66 70 -29
27 -39 43 -35 57 5 14 -9 30 -62 70 -61 46 -94 92 -77 109 5 6 51 -18 125 -65
44 -28 112 -108 114 -135 1 -10 17 -34 36 -52 92 -85 132 -119 108 -92 -50 58
-89 119 -89 140 0 12 -12 31 -26 44 -20 17 -23 25 -14 36 12 15 -3 31 -20 20
-5 -3 -57 22 -116 55 -58 34 -137 77 -176 95 -41 20 -96 58 -132 92 -34 32
-76 70 -94 86 -17 15 -32 32 -32 38 0 16 -38 46 -95 76 -140 73 -175 147 -42
89 54 -24 37 -3 -20 25 -26 13 -57 33 -68 44 -11 12 -40 29 -65 38 -64 24
-143 70 -148 85 -3 8 12 12 51 12 45 0 61 -5 85 -25 17 -14 37 -25 46 -25 9 0
33 -7 53 -15 26 -11 39 -12 49 -4 10 8 30 4 80 -20 37 -17 69 -29 71 -27 8 8
-31 54 -55 65 -13 6 -32 11 -43 11 -11 0 -23 8 -26 18 -4 9 -17 30 -30 45 -17
21 -21 36 -17 55 9 37 8 36 59 22 41 -11 165 -98 174 -122 2 -5 22 -18 46 -28
23 -10 66 -39 95 -65 43 -38 57 -45 79 -40 15 3 46 -1 69 -9 55 -20 54 -4 -2
23 -23 12 -63 40 -87 62 -24 23 -57 48 -72 56 -21 10 -28 20 -24 34 4 15 -5
26 -33 45 -21 14 -41 32 -44 40 -3 8 -11 14 -18 14 -8 0 -21 8 -30 19 -8 10
-22 21 -29 23 -7 2 -9 10 -5 16 8 13 53 7 71 -9 5 -5 23 -9 40 -8 l30 1 -32
11 c-43 16 -51 27 -30 38 28 16 20 27 -25 34 -60 10 -137 44 -149 66 -5 11
-16 19 -23 19 -8 0 -26 15 -41 33 -15 17 -42 37 -59 43 -25 9 -32 17 -34 45
-3 30 -10 37 -55 59 -58 29 -80 68 -32 56 60 -15 100 -41 99 -64 0 -16 8 -24
35 -33 20 -7 52 -25 71 -40 45 -37 75 -39 66 -4 -9 35 17 33 89 -5 64 -34 65
-34 65 -20 0 5 -13 16 -30 25 -16 9 -30 22 -30 30 0 8 -46 47 -102 87 -200
141 -261 225 -125 173 9 -4 17 -3 17 3 0 15 -39 26 -86 23 -26 -1 -45 3 -53
13 -21 26 -3 39 46 32 41 -5 43 -5 33 14 -6 11 -16 20 -21 20 -17 0 -89 60
-89 75 0 7 -12 16 -27 20 -39 9 -105 54 -98 65 4 6 23 10 44 10 30 0 44 -7 76
-40 21 -22 45 -40 53 -40 18 0 92 -62 92 -77 0 -6 9 -14 20 -18 10 -3 38 -27
60 -52 42 -48 66 -56 29 -10 -12 17 -18 34 -14 46 3 11 1 22 -5 26 -6 4 -22
24 -35 46 -14 21 -40 46 -57 55 -40 20 -149 124 -142 136 3 4 14 8 25 8 24 0
24 6 -1 37 -46 58 -7 58 62 1 28 -24 86 -83 130 -132 46 -52 95 -97 116 -107
20 -9 48 -28 61 -43 14 -14 31 -26 39 -26 7 0 -23 40 -67 88 -45 49 -81 92
-81 95 0 15 25 6 49 -17 15 -13 48 -33 74 -45 l49 -21 -32 37 c-56 63 -94 98
-124 113 -43 22 -104 82 -89 87 22 8 133 -34 283 -107 143 -69 160 -65 26 6
-37 20 -78 46 -89 57 -44 44 -145 106 -184 113 -30 6 -81 30 -103 50 -30 26
-109 63 -181 84 -39 12 -94 38 -122 57 -31 22 -53 31 -55 24 -2 -6 -13 -11
-24 -11 -22 0 -78 36 -78 51 0 12 36 12 60 -1 12 -6 21 -6 25 -1 3 6 63 8 148
5 175 -6 159 -6 235 5 94 13 97 22 10 25 -31 1 -52 7 -60 18 -7 9 -24 18 -38
20 -14 2 -25 8 -25 13 0 17 62 17 96 -1 40 -20 286 -32 316 -15 14 8 -2 10
-64 11 -67 0 -83 3 -83 15 0 10 10 15 31 15 18 0 71 5 118 12 l87 11 59 -34
c65 -38 77 -55 43 -62 -13 -2 -7 -3 13 -1 21 2 44 -2 55 -11 25 -19 54 -19 54
0 0 8 9 15 19 15 22 0 145 -44 234 -84 31 -14 57 -24 57 -21 0 3 -28 19 -61
37 -103 55 -113 61 -126 73 -12 12 -84 28 -180 40 -36 5 -53 11 -53 21 0 9 11
14 29 14 17 0 33 5 36 10 4 6 -24 10 -78 10 -75 0 -94 4 -183 41 -97 40 -145
71 -131 85 8 9 15 9 245 3 94 -3 172 -4 172 -3 0 7 -339 54 -392 54 -18 0 -28
-5 -28 -14 0 -22 -19 -25 -215 -36 -99 -5 -196 -14 -215 -20 -41 -12 -130 -13
-147 -2 -8 5 -9 13 -3 22 15 23 12 30 -10 30 -11 0 -20 6 -20 13 0 8 -12 19
-27 26 l-28 13 24 19 c13 10 29 19 36 19 6 0 20 9 30 20 10 11 25 20 34 20 9
0 25 14 34 30 10 17 24 30 32 30 14 0 65 49 65 62 0 7 -36 6 -179 -8 -50 -4
-53 -3 -48 17 4 16 2 19 -11 13 -9 -4 -32 -9 -50 -12 -28 -4 -33 -2 -30 14 3
16 -5 19 -47 22 -62 4 -73 14 -45 42 27 27 19 37 -15 22 -35 -16 -85 -15 -85
1 0 7 25 33 55 57 54 45 69 65 40 54 -8 -4 -15 -10 -15 -14 0 -13 -65 -50 -86
-50 -11 0 -32 -12 -49 -26 -24 -21 -37 -25 -65 -20 -19 3 -36 10 -38 15 -2 6
-17 8 -33 4 -32 -6 -38 7 -14 27 10 8 39 12 75 11 36 -1 60 2 60 8 0 6 11 13
24 17 15 3 23 11 20 19 -4 8 8 17 33 25 42 14 60 26 50 36 -4 4 -27 -1 -52
-10 -24 -10 -49 -15 -55 -11 -5 3 -20 -1 -32 -9 -12 -9 -34 -16 -48 -16 -14
-1 -36 -7 -50 -15 -37 -21 -220 -21 -220 0 0 8 5 15 10 15 6 0 10 5 10 10 0 6
-23 10 -51 10 -33 0 -56 5 -63 14 -9 11 -22 13 -61 6 -27 -4 -81 -10 -120 -11
-59 -3 -70 -1 -73 13 -5 25 87 41 200 34 193 -11 238 -17 238 -31 0 -7 -6 -16
-12 -18 -7 -3 5 -6 28 -6 22 -1 44 3 50 8 12 13 177 41 201 35 11 -3 25 2 33
11 12 14 9 15 -31 8 -73 -12 -114 -10 -114 7 0 18 96 59 145 61 l35 1 -40 8
c-46 9 -118 -1 -141 -21 -22 -18 -121 -30 -254 -32 -93 -2 -105 0 -108 16 -3
12 5 19 26 23 18 4 29 12 28 21 -2 22 85 81 125 85 30 3 34 6 31 30 -2 23 6
33 47 60 47 32 48 34 28 44 -16 7 -28 6 -44 -4 -21 -13 -43 -10 -43 6 0 4 15
16 33 26 17 11 59 39 92 64 l60 45 111 -7 c89 -5 114 -3 123 8 9 11 9 15 -1
19 -10 4 -8 10 6 21 18 14 17 15 -8 22 -18 4 -37 -1 -61 -15 -20 -12 -45 -21
-56 -21 -22 0 -26 25 -4 34 8 3 15 10 15 16 0 6 -26 -3 -57 -19 -32 -16 -83
-32 -113 -36 -30 -4 -72 -12 -93 -18 -30 -8 -40 -8 -47 2 -6 10 -12 10 -29 2
-12 -7 -26 -9 -32 -5 -6 3 -18 -1 -27 -9 -32 -29 -115 -58 -161 -57 -45 2
-104 -10 -166 -32 -16 -6 -57 -13 -91 -15 -56 -4 -62 -3 -78 21 -21 32 -43 33
-75 2 -28 -26 -101 -46 -101 -27 0 6 17 22 38 35 20 13 48 35 61 49 23 25 23
26 2 20 -28 -7 -28 18 0 43 11 10 26 28 32 39 9 17 8 18 -5 8 -8 -7 -43 -16
-76 -19 -34 -4 -67 -13 -73 -20 -6 -8 -19 -14 -28 -14 -10 0 -26 -7 -37 -15
-10 -8 -27 -15 -36 -15 -19 0 -25 25 -8 35 21 13 9 24 -20 19 -35 -7 -39 5
-10 31 11 10 20 23 20 29 0 5 -18 -7 -39 -28 -22 -21 -44 -35 -50 -32 -24 15
29 86 65 86 13 0 28 6 33 13 49 59 61 77 52 77 -5 0 -13 -4 -16 -10 -3 -5 -13
-10 -22 -10 -12 0 -14 7 -9 30 3 17 3 30 1 30 -3 0 -30 -25 -60 -56 -57 -59
-87 -66 -60 -14 21 41 19 44 -14 21 -16 -12 -34 -21 -40 -21 -17 0 -13 27 5
34 9 3 14 12 11 19 -2 6 6 36 19 65 13 28 19 52 14 52 -5 0 -12 -4 -15 -10 -3
-5 -13 -10 -21 -10 -12 0 -14 7 -9 31 l7 30 -59 -32 c-73 -41 -83 -49 -55 -49
12 0 22 -4 22 -8 0 -4 -29 -36 -64 -71 -48 -48 -68 -62 -83 -57 -13 4 -33 -3
-57 -19 -34 -23 -56 -26 -56 -7 0 4 27 36 59 72 40 43 55 66 45 68 -7 2 -14
10 -14 18 0 13 -5 12 -28 -4 -15 -11 -40 -33 -56 -48 -23 -23 -25 -30 -12 -32
40 -8 -6 -75 -48 -70 l-28 3 22 28 c12 15 16 27 10 27 -21 0 -1 54 30 81 17
14 30 35 30 48 0 12 7 35 15 51 14 27 14 30 0 30 -9 0 -23 -16 -31 -35z m376
-238 c0 -23 -94 -96 -107 -83 -12 12 17 56 49 76 38 23 58 25 58 7z m-310 -52
c0 -8 -22 -26 -50 -40 -67 -34 -67 -10 0 40 34 25 50 25 50 0z m420 -349 c0
-15 -55 -66 -71 -66 -15 0 -11 10 19 45 29 35 52 45 52 21z m635 -66 c0 -8
-13 -18 -30 -21 -48 -10 -185 -10 -185 0 0 24 58 38 150 37 51 -1 65 -4 65
-16z m-2227 -12 c-5 -15 -58 -24 -58 -9 0 11 17 19 43 20 11 1 17 -4 15 -11z
m-84 -120 c-36 -62 -69 -99 -92 -104 -15 -4 -31 -10 -37 -14 -5 -4 -25 -11
-42 -15 -26 -5 -33 -3 -33 8 0 17 71 77 90 77 7 0 28 14 47 30 34 30 81 42 67
18z m3046 -461 c0 -18 -68 -35 -117 -30 -53 6 -56 20 -5 28 20 4 42 8 47 10
26 9 75 4 75 -8z m688 -203 c12 -4 22 -12 22 -19 0 -15 -144 -40 -231 -39 -40
0 -55 -4 -52 -12 2 -7 -4 -15 -14 -18 -33 -10 -180 3 -222 20 -41 16 -52 31
-28 38 6 2 31 9 53 16 36 11 49 10 95 -5 81 -27 86 -28 67 -15 -43 27 -21 31
217 38 39 1 80 -1 93 -4z m-332 -465 c36 -22 44 -39 19 -39 -11 0 -77 39 -94
56 -14 14 47 1 75 -17z m-194 -40 c68 -32 81 -45 54 -55 -16 -6 -159 57 -170
75 -14 22 47 11 116 -20z m380 -856 c15 -15 28 -30 28 -35 0 -15 -30 -8 -50
12 -19 19 -27 50 -13 50 4 0 20 -12 35 -27z m-34 -99 c53 -34 1 -46 -81 -18
-47 16 -58 28 -34 38 19 8 90 -4 115 -20z m100 -99 c25 -29 26 -34 13 -54 -8
-12 -14 -12 -38 4 -44 28 -73 57 -73 73 0 24 71 7 98 -23z m-366 -208 c43 -42
112 -125 117 -140 2 -6 15 -20 28 -30 30 -24 31 -57 1 -57 -16 0 -36 18 -66
59 -24 33 -63 76 -87 95 -32 27 -44 44 -47 71 -5 45 10 45 54 2z m-46 -224
c90 -93 174 -210 174 -245 0 -7 16 -33 35 -57 36 -45 41 -56 27 -65 -24 -14
-113 73 -145 142 -6 12 -33 45 -60 72 -37 38 -47 54 -42 69 4 15 -1 27 -19 43
-24 22 -30 37 -27 66 2 21 19 13 57 -25z m164 -1020 c0 -16 -5 -16 -30 -3 -24
13 -43 47 -34 61 7 13 64 -38 64 -58z m-144 -211 c12 -20 24 -49 28 -64 3 -15
12 -33 19 -40 16 -16 107 -200 107 -216 0 -13 -19 -16 -36 -4 -6 4 -21 26 -33
49 -11 23 -26 45 -32 48 -17 11 -45 83 -63 162 -8 39 -18 78 -22 87 -12 31 11
16 32 -22z m218 -298 c25 -31 46 -61 46 -66 0 -13 -58 -3 -76 13 -25 20 -40
109 -20 109 2 0 24 -25 50 -56z m-5055 -657 c76 -89 155 -178 175 -196 53 -51
48 -64 -33 -94 -78 -29 -235 -72 -297 -82 -39 -6 -43 -4 -63 28 -26 43 -26 52
-1 79 11 12 20 29 20 38 0 8 13 27 30 41 l29 26 -25 24 c-35 33 -42 73 -28
154 7 38 13 86 13 106 2 76 14 67 180 -124z m7133 -4073 c9 -89 -1 -354 -12
-354 -4 0 -10 10 -14 23 -10 38 -19 320 -12 370 11 73 30 53 38 -39z m1228
-515 c39 -76 37 -107 -3 -64 -30 33 -52 88 -43 110 9 24 14 19 46 -46z"/>
<path d="M4955 12500 c-3 -5 -2 -10 4 -10 5 0 13 5 16 10 3 6 2 10 -4 10 -5 0
-13 -4 -16 -10z"/>
<path d="M4394 12485 c-10 -24 -104 -87 -184 -122 -55 -24 -76 -38 -78 -53 -3
-19 -1 -20 17 -11 11 6 27 11 35 11 9 0 36 16 62 35 50 38 74 44 74 18 0 -11
22 6 60 46 33 35 60 67 60 71 0 7 -24 20 -36 20 -3 0 -7 -7 -10 -15z"/>
<path d="M4605 12451 c-3 -5 -1 -12 4 -15 5 -3 11 1 15 9 6 16 -9 21 -19 6z"/>
<path d="M4679 12413 c-12 -15 -12 -16 4 -10 10 4 23 7 28 7 5 0 9 5 9 10 0
16 -26 12 -41 -7z"/>
<path d="M6425 12360 c-4 -6 9 -10 32 -10 28 0 34 3 23 10 -20 13 -47 13 -55
0z"/>
<path d="M6522 12340 c14 -22 33 -21 92 5 30 13 29 13 -37 14 -65 1 -67 0 -55
-19z"/>
<path d="M6453 12291 c-3 -11 -29 -30 -61 -45 -32 -14 -48 -24 -37 -20 101 28
169 44 192 44 16 0 35 4 42 9 10 6 1 8 -25 4 -29 -4 -45 -1 -56 11 -22 22 -49
20 -55 -3z"/>
<path d="M3426 12285 c-3 -8 -1 -15 4 -15 13 0 22 18 11 24 -5 3 -11 -1 -15
-9z"/>
<path d="M6045 12240 c-196 -79 -198 -80 -193 -85 2 -2 25 4 51 13 39 14 49
15 56 4 6 -11 28 -5 102 27 52 22 106 43 122 46 26 7 38 25 16 25 -8 0 -8 5 1
15 7 8 9 15 4 15 -5 0 -76 -27 -159 -60z"/>
<path d="M5081 12231 l-24 -19 22 -7 c28 -9 81 22 60 36 -20 13 -31 11 -58
-10z"/>
<path d="M3980 12179 c0 -5 5 -7 10 -4 6 3 10 8 10 11 0 2 -4 4 -10 4 -5 0
-10 -5 -10 -11z"/>
<path d="M2716 12165 c-3 -8 -1 -15 4 -15 13 0 22 18 11 24 -5 3 -11 -1 -15
-9z"/>
<path d="M6492 12168 c-30 -5 -51 -12 -49 -15 5 -5 169 16 176 23 7 7 -71 2
-127 -8z"/>
<path d="M5304 12099 c-19 -21 -19 -21 9 -8 15 7 27 16 27 21 0 14 -16 9 -36
-13z"/>
<path d="M6040 11990 c0 -5 4 -10 9 -10 6 0 13 5 16 10 3 6 -1 10 -9 10 -9 0
-16 -4 -16 -10z"/>
<path d="M6115 11855 c-44 -7 -64 -13 -45 -13 19 0 69 5 110 12 95 17 42 18
-65 1z"/>
<path d="M6298 11773 c7 -3 16 -2 19 1 4 3 -2 6 -13 5 -11 0 -14 -3 -6 -6z"/>
<path d="M6761 11155 c15 -8 46 -17 70 -20 l44 -5 -50 19 c-62 24 -104 28 -64
6z"/>
<path d="M6915 11110 c7 -12 145 -14 145 -2 0 4 -34 9 -76 10 -48 1 -73 -1
-69 -8z"/>
<path d="M7734 10891 c27 -9 60 -30 75 -48 16 -18 46 -37 77 -46 27 -9 58 -19
68 -23 29 -11 -66 79 -112 105 -28 17 -58 25 -99 26 l-58 3 49 -17z"/>
<path d="M7090 10799 c0 -5 5 -7 10 -4 6 3 10 8 10 11 0 2 -4 4 -10 4 -5 0
-10 -5 -10 -11z"/>
<path d="M7330 10190 c36 -33 76 -59 67 -43 -3 5 -27 23 -54 41 l-48 34 35
-32z"/>
<path d="M7450 9987 c0 -3 18 -20 40 -37 22 -17 40 -29 40 -27 0 3 -18 20 -40
37 -22 17 -40 29 -40 27z"/>
<path d="M7330 8939 c19 -10 42 -18 50 -19 31 0 -20 35 -52 36 l-33 2 35 -19z"/>
<path d="M7484 8874 c3 -9 6 -21 6 -28 0 -13 59 -61 66 -54 6 7 -57 98 -68 98
-6 0 -7 -7 -4 -16z"/>
<path d="M7136 8787 c13 -17 31 -26 57 -29 20 -2 37 0 37 4 0 8 -43 28 -90 43
-23 7 -23 7 -4 -18z"/>
<path d="M7189 8707 c26 -28 31 -32 31 -19 0 4 -13 16 -28 26 l-27 19 24 -26z"/>
<path d="M7780 8655 c7 -9 15 -13 17 -11 7 7 -7 26 -19 26 -6 0 -6 -6 2 -15z"/>
<path d="M7157 8585 c73 -84 121 -130 128 -124 2 3 -39 48 -92 100 -90 88 -93
89 -36 24z"/>
<path d="M7115 8535 c21 -33 44 -69 51 -80 8 -11 14 -27 14 -35 0 -9 12 -27
26 -41 24 -22 26 -22 16 -3 -6 12 -9 24 -5 27 6 7 -101 159 -126 180 -8 6 3
-15 24 -48z"/>
<path d="M7860 8509 c65 -58 89 -69 54 -25 -16 20 -34 36 -40 36 -6 0 -17 7
-24 15 -7 8 -18 15 -24 15 -6 -1 9 -19 34 -41z"/>
<path d="M7982 8414 c10 -10 20 -15 24 -12 3 4 -5 12 -18 18 -22 12 -22 12 -6
-6z"/>
<path d="M6990 8402 c0 -12 19 -26 26 -19 2 2 -2 10 -11 17 -9 8 -15 8 -15 2z"/>
<path d="M6870 7792 c0 -5 7 -16 16 -23 14 -12 16 -11 13 5 -4 20 -29 35 -29
18z"/>
<path d="M10102 3250 c0 -14 2 -19 5 -12 2 6 2 18 0 25 -3 6 -5 1 -5 -13z"/>
<path d="M10071 2814 c0 -11 3 -14 6 -6 3 7 2 16 -1 19 -3 4 -6 -2 -5 -13z"/>
<path d="M10160 2536 c0 -2 10 -25 21 -51 12 -27 23 -69 25 -96 1 -26 11 -65
22 -86 11 -21 17 -44 15 -51 -3 -7 3 -24 12 -38 9 -14 15 -35 12 -45 -3 -10 0
-22 5 -25 6 -4 23 -34 38 -67 25 -56 28 -58 34 -34 5 20 -2 41 -24 81 -20 36
-27 57 -20 61 16 10 32 -7 69 -74 22 -39 38 -57 48 -54 7 3 21 -1 31 -9 9 -8
24 -19 32 -23 19 -11 9 2 -71 95 -84 98 -103 129 -197 333 -35 73 -52 101 -52
83z"/>
<path d="M8782 2270 c0 -14 2 -19 5 -12 2 6 2 18 0 25 -3 6 -5 1 -5 -13z"/>
<path d="M8731 2114 c0 -11 3 -14 6 -6 3 7 2 16 -1 19 -3 4 -6 -2 -5 -13z"/>
<path d="M10321 1984 c0 -11 3 -14 6 -6 3 7 2 16 -1 19 -3 4 -6 -2 -5 -13z"/>
<path d="M10436 1977 c3 -10 9 -15 12 -12 3 3 0 11 -7 18 -10 9 -11 8 -5 -6z"/>
<path d="M8765 1920 c12 -98 18 -130 26 -130 12 0 11 2 -11 90 -11 41 -18 59
-15 40z"/>
<path d="M10446 1902 c-3 -6 -1 -14 5 -17 14 -9 20 -2 10 14 -6 8 -11 9 -15 3z"/>
<path d="M10662 1858 c2 -6 10 -14 16 -16 7 -2 10 2 6 12 -7 18 -28 22 -22 4z"/>
<path d="M10330 1483 c0 -45 12 -62 39 -60 35 2 31 23 -10 55 -26 21 -29 22
-29 5z"/>
<path d="M7040 1443 c0 -4 5 -15 10 -23 8 -13 10 -13 10 2 0 9 -4 20 -10 23
-5 3 -10 3 -10 -2z"/>
<path d="M10490 1405 c0 -12 72 -106 77 -101 3 3 -4 20 -16 39 -21 35 -61 75
-61 62z"/>
<path d="M9081 1244 c0 -11 3 -14 6 -6 3 7 2 16 -1 19 -3 4 -6 -2 -5 -13z"/>
<path d="M9251 1168 c86 -221 118 -294 119 -273 0 17 -125 325 -132 325 -4 0
2 -24 13 -52z"/>
<path d="M9106 1090 c8 -52 9 -54 23 -46 6 4 6 17 -1 39 -18 53 -30 57 -22 7z"/>
<path d="M9224 1063 c22 -74 35 -145 34 -176 -2 -47 8 -58 21 -24 7 19 6 37
-3 64 -7 21 -16 56 -20 78 -10 59 -16 75 -27 75 -6 0 -8 -8 -5 -17z"/>
<path d="M9091 924 c0 -11 3 -14 6 -6 3 7 2 16 -1 19 -3 4 -6 -2 -5 -13z"/>
<path d="M10950 772 c0 -5 7 -16 16 -23 14 -12 16 -11 13 5 -4 20 -29 35 -29
18z"/>
<path d="M10210 408 c0 -9 -6 -18 -12 -21 -10 -4 -10 -7 0 -18 6 -7 12 -28 12
-45 0 -18 5 -36 11 -40 6 -3 19 -25 29 -48 26 -58 24 -23 -5 85 -24 90 -35
118 -35 87z"/>
<path d="M9950 383 c1 -5 7 -19 15 -33 12 -22 14 -23 20 -7 4 9 2 24 -5 32
-13 16 -30 20 -30 8z"/>
<path d="M10566 262 c-6 -10 90 -122 105 -122 12 0 -74 123 -89 128 -6 2 -13
-1 -16 -6z"/>
<path d="M10182 91 c2 -14 9 -26 16 -29 17 -5 15 10 -3 34 -15 18 -15 18 -13
-5z"/>
</g>
</svg>
