<?xml version="1.0" standalone="no"?>
<!DOCTYPE svg PUBLIC "-//W3C//DTD SVG 20010904//EN"
 "http://www.w3.org/TR/2001/REC-SVG-20010904/DTD/svg10.dtd">
<svg version="1.0" xmlns="http://www.w3.org/2000/svg"
 width="1280.000000pt" height="936.000000pt" viewBox="0 0 1280.000000 936.000000"
 preserveAspectRatio="xMidYMid meet">
<g transform="translate(0.000000,936.000000) scale(0.100000,-0.100000)"
fill="#000000" stroke="none">
<path d="M6821 9334 c0 -25 37 -133 38 -114 1 18 -25 120 -33 128 -3 3 -6 -3
-5 -14z"/>
<path d="M9003 9296 c-54 -54 -56 -85 -5 -98 30 -8 37 -20 33 -55 -4 -29 20
-18 58 27 50 59 91 128 91 153 0 19 -15 23 -25 7 -3 -5 -17 -10 -30 -10 -13 0
-27 5 -30 10 -13 22 -50 8 -92 -34z"/>
<path d="M11424 9249 c-34 -16 -67 -36 -74 -44 -23 -28 23 -17 76 17 67 45 69
46 64 52 -3 2 -33 -9 -66 -25z"/>
<path d="M10442 9215 c-17 -38 -14 -43 8 -15 21 27 25 40 12 40 -5 0 -14 -11
-20 -25z"/>
<path d="M8085 9136 c-4 -30 -4 -64 0 -77 8 -23 8 -23 16 -4 11 28 11 135 0
135 -5 0 -13 -24 -16 -54z"/>
<path d="M8152 9050 c0 -14 2 -19 5 -12 2 6 2 18 0 25 -3 6 -5 1 -5 -13z"/>
<path d="M4380 9041 c0 -11 5 -23 10 -26 6 -3 10 3 10 14 0 11 -4 23 -10 26
-5 3 -10 -3 -10 -14z"/>
<path d="M11851 8924 c-32 -27 -41 -54 -18 -54 13 0 46 32 61 57 13 24 -13 22
-43 -3z"/>
<path d="M11586 8911 c-17 -19 -21 -41 -7 -41 13 0 42 48 32 54 -4 3 -16 -3
-25 -13z"/>
<path d="M9099 8837 c-29 -24 -55 -67 -41 -67 8 0 44 37 71 73 19 24 1 21 -30
-6z"/>
<path d="M11473 8794 c-32 -25 -42 -44 -24 -44 13 0 71 50 71 61 0 15 -13 10
-47 -17z"/>
<path d="M10562 8794 c-12 -8 -22 -19 -22 -25 0 -15 26 -10 43 9 30 33 17 43
-21 16z"/>
<path d="M6031 8784 c0 -11 3 -14 6 -6 3 7 2 16 -1 19 -3 4 -6 -2 -5 -13z"/>
<path d="M11131 8757 c-23 -37 -25 -47 -13 -47 12 0 48 68 40 75 -3 3 -15 -9
-27 -28z"/>
<path d="M9415 8704 l-60 -56 63 52 c54 45 69 61 60 60 -2 0 -30 -26 -63 -56z"/>
<path d="M6520 8711 c0 -5 5 -13 10 -16 6 -3 10 -2 10 4 0 5 -4 13 -10 16 -5
3 -10 2 -10 -4z"/>
<path d="M11605 8640 c-27 -30 -12 -34 15 -5 13 14 19 25 13 25 -5 0 -18 -9
-28 -20z"/>
<path d="M10009 8604 l-24 -27 28 18 c15 9 27 21 27 26 0 14 -5 11 -31 -17z"/>
<path d="M11437 8592 c-10 -10 -17 -22 -17 -26 0 -12 37 13 44 29 8 21 -7 19
-27 -3z"/>
<path d="M10168 8553 c-47 -50 -70 -93 -49 -93 12 0 101 108 101 121 0 18 -16
9 -52 -28z"/>
<path d="M9923 8523 c-21 -25 -75 -78 -119 -118 -45 -39 -122 -118 -171 -175
-50 -58 -103 -116 -118 -130 -15 -14 -37 -46 -50 -71 -22 -43 -85 -109 -104
-109 -5 0 -19 17 -31 37 l-22 38 -19 -50 c-10 -28 -19 -56 -19 -63 0 -29 -31
-70 -60 -80 -29 -11 -32 -9 -55 28 -13 21 -29 41 -35 45 -22 14 -8 37 34 55
46 19 86 52 86 70 0 17 -92 11 -135 -9 -55 -25 -72 -47 -57 -72 16 -26 17 -24
-28 -48 -52 -27 -55 -27 -69 7 -19 45 7 95 61 116 24 9 63 35 88 58 25 24 71
62 103 85 31 24 57 47 57 52 0 4 35 37 77 71 43 36 71 66 64 68 -7 2 -30 -10
-51 -27 -44 -35 -58 -38 -67 -13 -4 9 -19 32 -35 51 -25 29 -28 39 -23 72 8
48 3 49 -23 6 -11 -19 -27 -45 -37 -60 l-17 -26 36 6 c51 8 76 -16 76 -74 0
-50 -28 -87 -57 -76 -39 14 -72 45 -83 78 -9 26 -17 35 -34 35 -28 0 -56 29
-56 57 0 17 -17 33 -35 33 -9 0 -136 -110 -196 -171 -85 -84 -96 -102 -105
-167 -6 -50 -8 -53 -30 -48 -28 7 -29 3 -8 -29 13 -20 14 -31 5 -56 -28 -80 8
-139 84 -139 26 0 48 6 55 15 18 22 44 18 55 -7 12 -28 51 -35 74 -14 24 22
31 11 31 -50 0 -43 -4 -55 -20 -64 -11 -6 -33 -39 -49 -74 -28 -62 -60 -96
-91 -96 -8 0 -37 -11 -65 -25 -27 -13 -55 -25 -61 -25 -6 0 -17 -6 -23 -13 -6
-8 -36 -19 -67 -26 -51 -12 -61 -11 -117 10 -34 12 -66 26 -71 30 -12 11 21
79 39 79 24 0 46 43 39 78 -7 36 -6 36 -56 22 -71 -20 -95 14 -61 86 l18 36
-30 25 c-17 13 -49 33 -71 43 -23 10 -45 23 -48 29 -17 27 -38 -7 -50 -80 -4
-22 -18 -46 -36 -63 -17 -14 -30 -32 -30 -39 0 -6 10 1 23 17 18 23 25 26 34
15 19 -25 25 -71 11 -80 -22 -14 -68 -10 -74 6 -4 8 -11 15 -16 15 -5 0 -23
10 -40 21 -25 18 -29 27 -24 50 5 25 2 28 -27 35 -28 6 -35 2 -64 -31 -23 -27
-37 -35 -51 -31 -15 5 -30 -5 -62 -44 -46 -55 -45 -64 3 -24 36 30 43 21 28
-33 -19 -68 -14 -129 13 -158 14 -15 26 -31 28 -37 2 -5 32 -12 66 -15 50 -5
65 -10 74 -26 9 -18 6 -25 -24 -52 -19 -16 -40 -40 -47 -52 -17 -33 -39 -28
-58 12 -22 46 -41 45 -45 -2 -3 -33 -8 -41 -40 -56 -46 -23 -74 -15 -82 21 -3
15 -10 34 -16 42 -9 13 -12 12 -25 -5 -17 -24 -20 -27 -61 -60 -38 -30 -55
-31 -77 -7 -23 25 -21 45 6 92 18 33 27 40 53 40 37 0 64 27 64 62 0 29 17 46
57 57 32 8 45 47 19 57 -10 4 -32 -10 -62 -40 -26 -25 -55 -48 -66 -51 -10 -4
-25 -20 -33 -36 -12 -22 -22 -29 -46 -29 -36 0 -61 -12 -111 -54 -81 -68 -98
-78 -103 -63 -3 7 -1 26 5 41 15 40 12 53 -7 34 -9 -9 -17 -29 -19 -45 -13
-156 -20 -165 -100 -138 -48 16 -62 17 -101 7 -38 -11 -49 -10 -69 3 -13 8
-30 15 -37 15 -8 0 -20 6 -27 14 -6 8 -18 12 -26 9 -17 -6 -19 20 -3 49 11 20
13 20 24 5 23 -32 66 6 46 40 -6 11 -10 12 -15 4 -10 -15 -36 -14 -36 1 0 7
-8 31 -17 54 l-17 41 -60 -63 c-49 -50 -71 -65 -108 -75 -28 -6 -48 -17 -48
-25 0 -24 -37 -36 -54 -18 -21 21 -22 19 22 73 52 63 63 85 18 38 -20 -21 -61
-49 -91 -63 -49 -23 -58 -24 -82 -12 -25 12 -32 12 -64 -7 -55 -31 -179 -148
-179 -169 0 -10 14 -35 30 -56 35 -45 37 -58 11 -109 -11 -21 -18 -47 -15 -58
4 -15 -3 -26 -30 -42 -20 -13 -50 -39 -68 -60 -44 -50 -61 -58 -145 -66 -63
-7 -73 -5 -91 13 -11 11 -22 26 -24 33 -4 11 -11 12 -36 2 -27 -10 -33 -9 -42
5 -8 14 -9 12 -10 -10 0 -21 -11 -35 -42 -58 -56 -41 -81 -46 -133 -25 -32 12
-45 22 -45 36 0 16 -3 17 -25 7 -20 -9 -28 -8 -43 5 -10 10 -24 17 -30 17 -6
0 -21 14 -34 30 -12 17 -28 30 -35 30 -7 0 -35 -20 -63 -45 -28 -25 -54 -45
-58 -45 -15 0 -32 24 -32 45 0 40 26 62 83 69 30 4 76 14 102 22 27 8 57 12
67 8 9 -3 39 4 64 16 l47 20 84 -27 c62 -20 83 -32 83 -44 0 -26 17 -32 23 -9
4 15 14 20 41 20 30 0 36 4 36 20 0 33 78 123 121 140 70 28 172 148 143 168
-6 4 -20 22 -33 40 -12 18 -36 39 -53 48 -29 15 -30 18 -26 68 4 49 3 52 -16
49 -12 -2 -36 5 -53 16 -27 17 -33 27 -33 57 0 30 -3 35 -17 29 -51 -21 -53
-20 -53 27 0 36 7 51 41 93 56 67 79 119 79 182 0 63 -10 91 -48 134 -22 26
-30 48 -35 94 -8 73 -25 135 -37 135 -5 0 -6 -23 -3 -52 14 -109 18 -103 -67
-103 -41 -1 -85 -6 -97 -13 -41 -23 -53 -15 -89 63 -19 41 -37 88 -40 105 -8
38 -15 38 -43 -1 -21 -28 -22 -36 -13 -68 22 -73 25 -154 9 -221 -13 -53 -37
-193 -37 -214 0 -3 -9 -10 -19 -16 -16 -8 -29 -2 -75 36 -40 32 -56 52 -56 69
0 35 -15 39 -58 15 -43 -24 -72 -65 -72 -102 0 -26 -45 -104 -74 -127 -10 -8
-24 -27 -31 -42 -12 -21 -77 -68 -140 -99 -45 -22 -53 -36 -58 -110 -10 -126
-22 -176 -50 -214 -28 -35 -79 -55 -112 -42 -19 7 -19 56 0 103 23 54 18 60
-20 23 -28 -27 -34 -41 -33 -70 2 -49 -24 -97 -82 -156 -27 -27 -50 -56 -50
-64 0 -19 -37 -81 -59 -98 -22 -17 -88 -52 -99 -52 -6 0 -22 25 -36 55 -26 52
-26 55 -11 85 24 46 14 56 -23 25 -37 -31 -40 -54 -11 -81 35 -32 47 -66 45
-127 -3 -64 -9 -75 -29 -58 -12 9 -17 3 -27 -33 -14 -51 -37 -76 -83 -91 -29
-9 -32 -13 -29 -47 4 -41 -12 -78 -33 -78 -7 0 -28 -12 -45 -27 -27 -22 -35
-25 -51 -15 -15 10 -23 6 -53 -26 -20 -20 -36 -40 -36 -44 0 -4 -11 -15 -25
-24 -23 -15 -27 -15 -49 -1 -23 15 -24 15 -29 -11 -3 -15 -20 -36 -36 -47 -19
-12 -31 -29 -31 -42 0 -12 -4 -25 -10 -28 -5 -3 -10 -24 -10 -45 0 -41 -23
-75 -46 -66 -8 3 -14 -1 -14 -11 0 -23 -100 -142 -173 -206 -73 -64 -187 -151
-209 -159 -8 -4 -20 -26 -26 -50 -6 -24 -23 -55 -37 -68 -14 -13 -42 -57 -61
-96 -45 -92 -59 -105 -75 -70 -21 45 -69 27 -69 -26 0 -21 5 -28 20 -28 28 0
25 -11 -15 -50 -20 -19 -40 -50 -45 -70 -5 -20 -43 -74 -87 -126 -43 -51 -83
-100 -89 -110 -10 -18 -12 -18 -37 -1 -34 22 -35 22 -30 -5 2 -13 0 -43 -4
-68 -7 -36 -15 -49 -43 -67 -19 -12 -47 -31 -62 -43 -14 -11 -41 -23 -60 -27
-18 -3 -43 -13 -55 -20 -12 -8 -31 -12 -42 -8 -10 3 -49 1 -85 -5 -65 -10 -69
-9 -132 20 -35 17 -64 32 -64 34 0 21 40 126 67 174 29 52 39 63 56 58 11 -3
29 0 40 6 16 8 18 17 14 52 -7 48 3 58 84 82 105 31 149 150 88 236 -24 33
-90 68 -129 68 -42 0 -108 -37 -130 -72 -26 -43 -26 -116 0 -168 31 -60 26
-96 -18 -149 -50 -59 -58 -76 -66 -134 -4 -27 -16 -57 -27 -68 -10 -10 -19
-25 -19 -33 0 -32 -53 -126 -106 -188 -54 -64 -95 -91 -79 -50 4 9 10 36 12
59 5 37 2 46 -25 73 -38 37 -70 38 -111 4 -26 -21 -31 -33 -31 -68 0 -60 34
-96 90 -96 47 0 50 -11 19 -64 -24 -40 -27 -42 -55 -21 -28 21 -54 18 -83 -9
-32 -30 -146 -78 -185 -78 -28 1 -76 -18 -104 -41 -21 -17 -113 -47 -142 -47
-14 0 -31 5 -38 12 -9 9 -15 8 -24 -5 -13 -17 -81 -40 -178 -59 -97 -19 -105
-18 -108 21 -3 25 3 40 24 62 23 25 26 33 20 73 -7 43 -5 47 41 98 27 29 59
68 72 86 14 20 45 43 77 57 41 18 58 32 69 57 20 45 282 309 320 323 11 4 53
8 92 10 44 2 81 10 94 19 36 25 59 68 59 113 0 46 27 76 104 115 22 11 64 37
91 58 28 21 66 45 85 53 19 9 70 30 113 48 85 36 92 42 102 80 5 22 2 28 -25
39 -42 17 -64 5 -162 -93 -44 -42 -100 -88 -127 -101 -26 -14 -67 -41 -91 -61
-74 -62 -94 -69 -148 -51 -25 9 -62 16 -83 16 -48 0 -71 -30 -106 -138 -32
-99 -42 -115 -96 -140 -24 -11 -51 -32 -61 -46 -9 -15 -40 -39 -69 -56 -29
-16 -68 -46 -87 -65 -19 -20 -50 -43 -69 -51 -41 -17 -57 -38 -66 -81 -3 -18
-26 -56 -51 -85 -25 -29 -53 -66 -61 -83 -25 -48 -54 -75 -83 -75 -39 0 -74
-41 -66 -77 9 -36 10 -48 8 -105 -2 -51 -21 -78 -54 -78 -12 0 -57 -22 -102
-49 -45 -26 -97 -53 -116 -60 -19 -6 -55 -25 -80 -41 -25 -16 -51 -30 -58 -30
-18 0 -105 -84 -213 -206 -81 -90 -101 -121 -161 -245 -37 -78 -68 -152 -68
-165 0 -25 -34 -54 -63 -54 -10 0 -32 7 -49 16 -45 23 -58 4 -24 -36 14 -17
26 -35 26 -39 0 -4 -11 -39 -23 -77 -19 -54 -24 -87 -22 -154 1 -47 3 -88 4
-91 0 -4 24 -21 51 -39 47 -30 56 -32 113 -28 75 7 169 47 192 82 17 26 62 46
150 67 46 10 53 10 85 -10 19 -11 45 -21 56 -21 12 0 25 -7 28 -16 6 -15 8
-15 25 0 18 16 20 16 33 -3 15 -21 15 -21 38 4 30 32 21 60 -19 52 -19 -4 -42
1 -67 14 -22 11 -52 19 -69 17 -77 -6 -205 95 -205 162 0 15 -7 47 -16 71 -11
31 -13 61 -9 100 4 32 2 74 -5 98 -9 36 -7 55 15 139 14 53 37 114 50 134 27
41 119 118 141 118 7 0 28 13 46 29 51 44 171 100 251 116 39 8 91 22 115 31
42 16 43 16 78 -11 28 -22 42 -26 69 -21 28 6 36 3 45 -13 17 -32 45 -43 74
-29 51 23 20 88 -41 88 -31 0 -47 18 -37 43 3 8 40 24 82 36 42 13 111 36 152
52 79 30 155 50 180 47 27 -3 100 14 100 24 0 5 17 16 38 24 20 8 63 27 95 41
47 22 62 25 77 16 14 -10 21 -9 30 2 30 36 90 -7 90 -62 0 -52 -15 -78 -72
-122 -84 -67 -154 -138 -193 -197 -44 -66 -104 -102 -142 -85 -58 26 -116 -3
-157 -80 l-28 -51 21 -22 c12 -12 21 -26 21 -32 0 -14 -85 -121 -197 -246 -56
-63 -110 -128 -120 -144 -59 -93 -88 -125 -125 -134 -77 -21 -121 -84 -98
-141 16 -37 37 -41 207 -38 l144 2 34 -37 c19 -21 40 -35 47 -33 7 3 30 11 50
18 45 15 64 34 72 75 16 72 -93 114 -159 62 -25 -19 -32 -20 -71 -10 -25 7
-60 12 -79 12 -40 0 -57 19 -29 34 37 21 125 122 166 191 58 98 137 215 167
248 28 30 43 34 61 12 9 -11 8 -19 -4 -37 -17 -24 -21 -65 -7 -86 13 -21 81
-41 112 -32 34 10 63 -18 73 -70 17 -86 17 -98 7 -104 -6 -4 -11 -26 -11 -49
0 -35 -6 -48 -42 -84 -23 -24 -48 -43 -55 -43 -7 0 -15 -12 -19 -27 -4 -16
-13 -34 -22 -40 -14 -11 -13 -13 6 -13 32 0 37 -22 16 -76 -14 -37 -31 -57
-83 -95 -36 -27 -95 -58 -130 -70 -60 -20 -66 -21 -91 -5 -36 21 -40 20 -40
-5 0 -21 -63 -84 -140 -141 -20 -15 -42 -39 -48 -53 -9 -20 -19 -25 -46 -25
-18 0 -39 -6 -45 -14 -6 -7 -37 -16 -68 -19 -45 -5 -62 -12 -91 -39 -39 -38
-71 -100 -72 -140 0 -15 -7 -31 -15 -35 -12 -7 -9 -18 16 -68 41 -82 52 -88
91 -51 14 13 45 26 68 30 49 8 116 51 177 114 l42 43 88 -7 c81 -6 89 -5 107
15 43 48 49 1 11 -85 -14 -31 -25 -66 -25 -77 0 -11 -7 -44 -17 -73 -14 -44
-14 -57 -3 -83 24 -59 55 -71 187 -75 l117 -4 23 -33 c32 -47 51 -59 92 -59
40 1 62 14 80 48 12 23 54 31 66 12 9 -15 51 -12 65 5 9 11 17 12 32 4 13 -7
34 -7 70 1 42 9 54 8 68 -5 9 -8 26 -15 38 -15 11 0 24 -4 27 -10 9 -14 48
-13 63 2 21 21 13 46 -24 67 -19 12 -41 21 -47 21 -7 0 -18 9 -25 20 -22 36
-65 22 -74 -25 -3 -16 -12 -20 -43 -21 -22 0 -48 -4 -58 -8 -10 -5 -23 -3 -32
4 -14 12 -53 10 -86 -4 -11 -5 -28 3 -50 22 -44 37 -74 44 -124 26 -52 -18
-70 -18 -85 2 -8 8 -28 21 -47 29 -49 21 -51 40 -10 83 46 48 72 101 58 115
-8 8 -18 4 -36 -13 -14 -13 -28 -21 -31 -17 -9 9 24 137 43 166 14 22 19 23
82 17 80 -8 153 15 185 57 26 35 37 151 18 179 -13 18 -12 25 6 62 11 22 23
51 26 63 4 12 15 25 26 28 10 3 21 16 24 29 4 16 22 31 53 46 27 12 59 32 73
44 61 52 137 96 170 96 59 0 46 -174 -18 -242 -49 -53 -54 -117 -13 -159 57
-57 148 -24 171 62 6 21 17 39 24 39 7 0 27 -18 45 -40 38 -48 79 -70 135 -75
61 -4 136 -42 176 -88 30 -35 35 -47 32 -82 -4 -52 20 -75 85 -83 26 -3 53
-12 59 -20 12 -17 54 -11 92 14 18 12 20 18 12 34 -9 16 -7 22 5 26 8 4 22 1
30 -6 17 -14 20 -40 5 -40 -18 0 -11 -46 11 -74 23 -29 50 -34 69 -11 7 8 28
15 47 15 61 0 95 67 54 104 -14 13 -28 16 -54 11 -31 -6 -38 -3 -52 19 -9 14
-32 34 -51 45 -30 18 -34 25 -34 61 0 50 -47 125 -84 134 -48 12 -130 -38
-140 -85 -8 -41 -30 -46 -76 -15 -75 50 -90 104 -25 92 l34 -7 -31 33 c-36 38
-48 67 -48 113 0 28 -7 38 -42 62 -62 41 -70 63 -63 163 6 87 31 196 46 206 5
3 25 0 43 -7 32 -12 36 -11 54 11 19 23 20 24 46 6 15 -9 32 -28 38 -40 5 -13
28 -31 49 -39 29 -11 43 -25 54 -51 24 -56 67 -68 94 -25 18 30 -11 73 -44 65
-51 -13 -108 37 -91 79 6 15 9 16 29 3 37 -25 126 -29 168 -7 40 20 49 40 49
109 0 44 -2 46 -45 70 -25 14 -45 28 -45 31 0 10 83 -1 94 -12 6 -5 18 -2 28
8 15 14 23 15 38 6 14 -10 19 -9 24 2 3 9 19 15 41 15 30 0 44 9 100 68 62 64
66 66 80 48 21 -27 19 -54 -6 -68 -20 -12 -113 -137 -107 -143 2 -2 19 -7 38
-12 26 -7 41 -19 57 -49 49 -86 48 -82 25 -112 -13 -15 -27 -40 -34 -55 -9
-25 -15 -28 -38 -23 -16 3 -35 -1 -46 -9 -28 -21 -50 -18 -96 15 -50 37 -82
38 -131 5 -32 -22 -37 -31 -37 -65 0 -55 48 -110 97 -110 48 0 70 14 93 60 25
50 35 55 72 39 26 -10 34 -10 61 6 30 18 31 18 49 -5 10 -12 18 -28 18 -35 0
-7 9 -32 20 -56 23 -51 26 -117 7 -125 -7 -2 -33 4 -58 15 -53 24 -80 26 -118
6 -59 -30 -64 -114 -9 -160 34 -29 81 -33 135 -10 49 20 96 19 143 -5 50 -25
95 -25 145 0 22 11 58 20 81 20 38 0 44 -4 63 -36 12 -20 25 -34 28 -30 4 3 1
12 -5 18 -30 30 -13 38 83 38 52 0 95 4 95 9 0 5 -44 12 -97 16 -54 4 -127 14
-163 22 -69 17 -188 78 -200 103 -5 8 -16 50 -25 92 -14 64 -15 84 -4 115 25
80 50 121 80 133 21 9 32 23 40 52 11 42 91 138 115 138 7 0 34 -10 59 -22 40
-20 49 -21 80 -9 43 15 55 9 55 -33 0 -38 15 -56 47 -56 24 0 43 26 43 60 0
32 -27 77 -50 83 -16 4 -20 13 -20 47 0 36 -6 48 -37 78 l-37 35 47 91 c26 50
70 121 97 159 42 56 55 67 79 67 46 0 61 10 61 40 0 42 9 58 46 81 26 16 34
28 34 49 0 57 24 75 70 50 14 -7 19 -5 23 10 3 11 16 24 29 29 14 5 53 27 87
49 34 23 67 43 74 45 8 3 5 10 -8 20 -20 15 -20 15 1 44 12 15 32 30 45 31 13
2 34 13 46 24 14 13 28 18 42 13 16 -5 21 -2 21 12 0 19 88 83 114 83 7 0 37
-16 65 -35 51 -35 71 -43 71 -26 0 5 21 21 46 35 67 37 115 34 93 -5 -16 -31
-186 -220 -238 -266 -35 -30 -52 -54 -60 -86 -8 -28 -35 -70 -77 -118 -42 -49
-85 -116 -128 -201 -86 -167 -86 -168 -116 -168 -30 0 -100 -59 -100 -85 0
-58 -71 -127 -143 -139 -52 -10 -69 -39 -74 -136 -4 -85 5 -117 49 -157 36
-34 66 -35 148 -5 63 24 78 34 92 63 20 39 23 122 7 168 -16 45 -4 76 37 102
46 28 79 95 64 133 -8 22 -4 32 30 75 22 28 67 78 100 113 38 39 81 99 112
158 33 60 69 110 99 138 36 33 52 58 64 96 19 64 126 214 209 294 67 65 118
87 187 80 36 -3 37 -2 22 15 -21 22 -8 37 44 52 28 8 42 20 60 55 39 73 52 83
102 77 61 -7 98 6 143 50 32 31 38 42 33 65 -19 86 108 163 260 156 l69 -3 34
-57 c22 -37 35 -74 39 -110 7 -74 -19 -98 -125 -114 -42 -7 -64 -12 -49 -13
36 -1 88 -23 106 -44 20 -24 112 -23 134 1 24 26 21 51 -13 101 -17 24 -30 52
-30 61 0 9 -11 54 -25 101 -14 46 -23 93 -21 104 7 25 68 65 100 65 18 0 25
-6 28 -22 3 -25 12 -26 82 -12 78 14 115 98 57 128 -16 9 -31 21 -33 28 -10
27 2 92 21 112 14 15 17 26 11 36 -11 18 6 40 32 40 10 0 29 6 41 14 12 7 49
19 82 26 33 7 72 19 87 26 15 8 40 14 57 14 21 0 32 6 36 20 9 29 32 37 102
39 52 1 64 -2 73 -18 7 -13 7 -22 0 -26 -5 -3 -10 -10 -10 -16 0 -5 7 -5 18 2
13 8 31 3 85 -25 38 -20 81 -36 97 -36 56 0 80 -16 80 -53 0 -38 29 -82 60
-92 11 -4 20 -15 20 -26 0 -16 -7 -19 -55 -19 -46 0 -60 -5 -85 -27 -56 -51
-50 -135 12 -173 44 -28 91 -20 133 20 17 16 35 30 41 30 6 0 25 -15 43 -34
41 -43 36 -66 -14 -66 -47 0 -47 -25 1 -45 36 -15 36 -16 19 -35 -14 -15 -15
-20 -4 -20 26 0 69 -45 97 -100 26 -52 31 -56 92 -78 55 -20 78 -23 152 -19
54 3 91 0 97 -6 6 -6 11 -27 11 -47 0 -25 9 -49 30 -76 33 -43 38 -75 15 -94
-10 -8 -12 -17 -6 -29 5 -9 7 -37 4 -62 -17 -153 138 -270 296 -223 40 12 68
29 111 72 32 31 66 62 76 68 16 9 17 15 6 38 -8 18 -10 50 -6 96 6 63 9 69 33
75 14 3 43 17 63 31 21 13 42 24 47 24 5 0 12 -20 15 -45 15 -100 114 -176
237 -183 55 -3 79 1 135 23 37 15 79 36 93 46 39 28 75 14 103 -41 13 -24 28
-45 33 -47 6 -2 16 16 23 39 21 66 37 85 92 103 67 22 169 117 215 200 43 75
73 193 77 300 l3 79 -32 21 c-41 26 -43 58 -5 80 28 17 22 16 -55 -6 -32 -10
-48 -10 -67 -1 -14 6 -26 15 -26 19 0 5 33 23 73 41 93 42 156 89 207 153 36
46 40 56 40 108 0 48 5 65 35 110 19 29 35 55 35 57 0 2 -15 4 -34 4 -44 0
-88 37 -109 89 -9 22 -31 51 -49 64 -35 26 -142 78 -193 93 -25 8 -30 15 -33
45 l-3 35 83 0 c66 0 91 4 123 21 67 36 113 91 130 158 18 66 15 86 -20 161
-21 45 -29 52 -61 57 -45 7 -64 23 -64 52 0 32 21 45 62 39 50 -8 103 11 133
49 14 18 30 38 36 45 5 6 21 12 34 12 36 0 41 19 5 26 -53 11 -60 56 -16 93 9
8 20 31 26 52 11 38 16 42 80 53 50 9 127 85 142 140 10 38 9 48 -14 98 -33
71 -47 78 -123 67 -112 -18 -180 -88 -180 -189 0 -46 -3 -55 -20 -59 -24 -4
-40 -24 -65 -77 -15 -34 -24 -42 -52 -46 -52 -8 -61 -1 -55 46 2 23 6 46 8 51
2 6 0 11 -6 13 -5 2 -14 -22 -20 -52 -7 -40 -19 -65 -47 -95 -20 -23 -43 -41
-50 -41 -8 0 -33 9 -56 20 -49 24 -54 48 -21 111 23 46 20 56 -11 39 -12 -6
-38 -11 -58 -10 -54 3 -63 -2 -17 -9 47 -7 57 -33 29 -76 -25 -38 -42 -44
-170 -61 -108 -14 -117 -14 -128 2 -16 21 -44 16 -141 -21 -76 -30 -126 -37
-132 -19 -6 18 22 41 74 59 27 10 75 28 108 41 l60 24 -82 -6 c-82 -6 -82 -6
-113 24 -39 39 -41 79 -4 88 18 5 31 19 44 49 19 44 16 42 137 80 7 3 24 -8
38 -23 21 -22 28 -25 43 -16 10 7 16 22 14 36 -2 20 7 31 37 51 22 15 54 47
71 73 27 38 36 45 58 41 19 -4 33 3 58 29 19 18 34 38 34 43 0 6 -21 11 -47
13 -48 3 -48 3 -46 37 0 18 6 38 11 43 6 6 52 10 104 9 56 -1 115 5 148 14 30
8 69 15 86 15 43 0 61 25 66 93 3 42 11 64 28 82 13 14 24 34 25 45 2 30 44
70 99 96 58 27 64 25 129 -45 51 -54 67 -62 67 -33 0 36 29 60 88 72 77 16
102 27 102 45 0 8 -4 15 -10 15 -16 0 -11 32 8 46 9 7 25 14 34 14 9 0 18 4
20 8 4 11 86 65 121 80 42 18 50 15 43 -15 -3 -16 -8 -38 -10 -51 -2 -13 -14
-34 -27 -48 -42 -45 -20 -131 42 -160 13 -7 43 -14 66 -17 41 -5 45 -3 100 54
37 37 71 63 93 69 52 14 81 45 71 73 -4 12 -4 33 0 47 4 14 7 43 8 66 1 32 8
48 36 77 42 43 70 53 101 37 27 -15 54 -7 54 15 0 10 -10 15 -34 15 -19 0 -42
7 -50 16 -22 22 -7 46 57 92 41 30 47 38 32 40 -11 2 -29 15 -40 28 -18 21
-24 23 -58 15 -42 -10 -67 5 -67 40 0 20 34 27 45 9 6 -10 45 -14 45 -5 0 2
-5 16 -12 29 -9 21 -8 29 5 44 10 10 17 23 17 29 0 13 -65 1 -105 -20 -60 -31
-113 -49 -136 -45 -20 2 -25 12 -35 61 -6 32 -13 60 -15 62 -3 2 -36 9 -74 15
-43 7 -75 17 -82 27 -19 25 -16 77 5 96 23 21 47 21 102 2 54 -19 63 -19 91 3
22 19 22 19 -38 18 -67 -1 -93 13 -93 50 0 40 -19 76 -38 72 -14 -3 -17 -14
-18 -61 -1 -51 -5 -62 -30 -87 -16 -16 -41 -32 -56 -35 -21 -6 -30 -1 -48 23
-22 30 -23 30 -54 15 -34 -16 -85 -87 -137 -191 -34 -69 -54 -77 -77 -29 -16
32 -59 57 -101 57 -65 0 -120 -86 -90 -141 20 -38 40 -48 97 -49 36 0 52 -4
52 -13 0 -19 -21 -37 -44 -37 -12 0 -32 -9 -46 -20 -46 -36 -62 -28 -104 52
-44 84 -45 144 -2 196 39 46 39 63 1 104 l-35 37 22 15 c12 9 27 16 33 16 5 0
25 9 43 20 l33 20 -17 29 c-17 29 -17 30 10 65 15 20 44 46 65 58 25 14 41 32
48 55 14 45 1 41 -44 -14z m-214 -306 c-8 -19 -9 -34 0 -57 7 -23 8 -38 0 -52
-6 -10 -10 -34 -9 -51 4 -64 -1 -78 -35 -113 -19 -19 -35 -43 -35 -53 0 -31
-21 -79 -37 -85 -9 -4 -27 1 -40 10 -39 25 -57 11 -49 -36 6 -37 4 -40 -16
-40 -50 0 -55 14 -25 75 26 54 26 55 5 44 -18 -10 -24 -8 -40 11 -10 12 -18
27 -18 34 0 6 32 41 70 77 49 45 70 73 70 89 0 37 48 100 76 100 17 0 24 6 24
20 0 12 13 28 32 40 38 23 43 21 27 -13z m-4041 -275 c2 -7 -3 -12 -12 -12 -9
0 -16 7 -16 16 0 17 22 14 28 -4z m4047 -119 c-8 -46 -30 -72 -46 -56 -8 8 -5
22 10 52 27 52 46 54 36 4z m-165 -73 c0 -5 -4 -10 -10 -10 -5 0 -10 5 -10 10
0 6 5 10 10 10 6 0 10 -4 10 -10z m648 -53 c24 -16 11 -33 -36 -50 -66 -24
-112 -54 -112 -73 0 -12 5 -15 23 -9 12 4 38 9 59 12 27 4 44 15 67 43 17 22
31 44 31 49 0 15 53 14 68 -1 7 -7 12 -20 12 -30 0 -24 -123 -115 -175 -129
-145 -40 -153 -43 -141 -61 16 -27 -14 -54 -43 -39 -21 11 -30 41 -12 41 5 0
11 11 13 24 4 19 1 22 -14 18 -12 -3 -18 1 -18 12 0 13 -8 12 -56 -9 -60 -27
-84 -22 -84 15 0 22 16 35 54 44 15 4 26 10 22 13 -11 11 26 43 51 43 12 0 23
5 23 10 0 6 -8 10 -17 10 -10 0 -27 3 -39 6 -14 4 -28 -3 -45 -20 -41 -43 -82
-28 -42 16 9 10 30 18 49 18 24 0 41 8 58 28 25 27 25 27 158 27 73 0 139 -4
146 -8z m-1130 -39 c-7 -19 -38 -22 -38 -4 0 10 9 16 21 16 12 0 19 -5 17 -12z
m-44 -36 c3 -9 11 -24 18 -34 18 -24 -5 -91 -37 -108 -14 -8 -35 -29 -46 -47
-21 -34 -39 -43 -39 -20 0 27 31 114 50 139 22 30 24 38 11 38 -5 0 -21 -20
-35 -45 -47 -80 -64 -50 -21 36 33 64 84 85 99 41z m-3260 -223 c12 -11 -16
-42 -60 -70 -25 -15 -38 -18 -52 -10 -39 21 -39 70 1 89 23 12 96 6 111 -9z
m2321 -119 c3 -5 -1 -10 -10 -10 -9 0 -13 5 -10 10 3 6 8 10 10 10 2 0 7 -4
10 -10z m941 -41 c10 -17 -13 -36 -27 -22 -12 12 -4 33 11 33 5 0 12 -5 16
-11z m-2166 -54 c0 -8 -4 -15 -9 -15 -13 0 -22 16 -14 24 11 11 23 6 23 -9z
m-1550 -525 c0 -5 -4 -10 -10 -10 -5 0 -10 5 -10 10 0 6 5 10 10 10 6 0 10 -4
10 -10z m0 -90 c0 -11 -6 -20 -14 -20 -18 0 -29 16 -21 30 11 18 35 11 35 -10z
m-64 -35 c13 -20 20 -23 35 -14 22 12 21 15 45 -92 9 -42 14 -83 11 -92 -7
-18 -58 -31 -85 -23 -11 4 -24 17 -30 30 -18 40 -135 46 -140 8 -1 -9 -5 -43
-8 -74 -6 -55 -8 -58 -50 -83 -24 -14 -44 -30 -44 -35 0 -28 -81 -16 -104 15
-10 13 -20 13 -77 1 -80 -17 -107 -30 -119 -60 -8 -22 -32 -32 -122 -50 -15
-4 -33 -12 -40 -19 -7 -7 -31 -22 -52 -33 -22 -10 -48 -33 -57 -51 l-18 -31
30 -12 c16 -7 45 -10 64 -7 74 12 44 -24 -98 -117 -51 -34 -102 -76 -123 -104
-38 -50 -156 -137 -214 -158 -19 -7 -51 -13 -71 -14 -30 0 -40 -6 -67 -44 -18
-25 -35 -60 -38 -78 -8 -42 -30 -78 -49 -78 -8 0 -15 -13 -17 -32 -3 -29 -10
-36 -58 -60 -30 -15 -71 -30 -90 -34 -19 -3 -51 -18 -70 -33 -63 -49 -107 -71
-139 -71 -35 0 -74 -18 -134 -61 -22 -16 -51 -29 -65 -29 -14 0 -38 -12 -53
-26 -15 -14 -32 -23 -38 -20 -20 13 -12 42 20 72 17 16 39 45 49 64 22 43 81
98 223 208 59 46 128 108 153 138 26 30 57 57 69 60 12 3 28 20 36 37 10 21
45 52 111 97 53 36 108 76 123 89 23 23 29 24 66 14 26 -7 55 -7 83 -1 38 8
49 17 80 64 30 45 41 54 66 54 19 0 30 5 30 14 0 7 7 19 16 27 14 12 14 14 -5
21 -15 5 -21 16 -21 37 0 24 10 36 49 65 27 20 53 36 59 36 6 0 29 16 52 35
23 19 48 35 55 35 17 0 265 198 265 210 0 16 56 39 77 34 12 -3 31 0 44 6 12
7 45 16 73 20 49 6 49 10 0 25 -28 9 4 35 42 35 18 0 57 6 87 14 29 8 65 12
80 9 34 -7 35 4 1 17 -35 14 -27 42 16 57 52 18 68 16 86 -12z m1000 -43 c22
-5 54 -17 71 -27 30 -18 32 -18 74 4 66 35 199 32 213 -4 11 -29 -42 -50 -135
-53 l-88 -4 -45 -46 c-99 -103 -130 -121 -177 -101 -15 6 -32 8 -37 5 -11 -7
-72 22 -72 34 0 20 13 40 26 40 8 0 14 10 14 25 0 14 -4 25 -10 25 -16 0 -12
37 5 44 8 3 15 12 15 20 0 8 12 24 28 35 27 21 34 22 118 3z m342 -94 c9 -9
18 -9 37 0 37 17 44 15 57 -14 10 -22 16 -25 44 -19 31 5 33 4 48 -42 15 -47
19 -75 17 -101 -1 -16 -77 -51 -111 -52 -30 0 -50 -17 -50 -41 0 -22 -60 -69
-88 -69 -26 0 -35 14 -42 65 -5 38 -8 41 -78 76 -86 43 -86 42 -77 68 8 26 20
26 52 1 31 -24 54 -25 97 -5 28 13 84 86 79 103 -1 4 -5 15 -8 25 -8 19 5 23
23 5z m2610 -20 c15 -15 15 -51 0 -66 -16 -16 -4 -26 25 -18 13 3 29 17 35 30
20 43 109 49 127 8 11 -26 46 -29 66 -6 12 15 15 14 31 -6 10 -12 18 -29 18
-37 0 -8 8 -28 18 -45 17 -29 17 -30 -11 -54 -15 -13 -35 -24 -43 -24 -8 0
-19 -11 -24 -25 -6 -15 -20 -27 -37 -31 -40 -9 -102 -71 -129 -129 -26 -54
-30 -114 -13 -164 9 -24 8 -39 -2 -64 -8 -18 -12 -55 -11 -83 4 -61 -15 -77
-57 -46 -40 29 -67 32 -87 11 -10 -11 -38 -25 -62 -31 -36 -9 -51 -20 -79 -59
-19 -27 -41 -49 -47 -49 -22 0 -44 33 -57 84 l-12 48 -46 -5 c-44 -5 -56 -13
-88 -63 -12 -18 -13 -18 -26 -1 -19 23 -39 22 -55 -4 -11 -18 -11 -23 4 -33
19 -15 13 -46 -10 -46 -7 0 -24 8 -37 19 -17 14 -21 22 -13 32 6 8 11 24 12
37 0 12 10 34 21 48 11 14 25 42 32 62 6 20 18 43 27 49 14 12 13 15 -6 36
-12 13 -22 26 -22 30 0 15 66 47 97 47 41 0 88 40 115 97 25 53 40 64 139 97
94 31 249 104 249 116 0 15 -13 12 -67 -11 -40 -18 -62 -20 -138 -17 -103 6
-138 19 -133 51 2 17 17 27 72 44 83 27 112 49 94 71 -9 10 -24 13 -55 8 -51
-7 -73 0 -73 24 0 26 19 37 77 45 28 4 73 13 100 20 62 17 67 17 81 3z m-3850
-91 c4 -18 -33 -38 -55 -30 -19 7 -16 30 5 42 24 15 46 9 50 -12z m1650 -122
c2 -16 9 -36 14 -43 19 -22 -7 -39 -29 -20 -10 9 -29 18 -43 20 -17 2 -26 10
-28 26 -5 33 16 54 52 50 26 -3 32 -8 34 -33z m-1578 -15 c22 -31 21 -59 -5
-80 -11 -9 -21 -6 -50 17 -41 33 -42 39 -13 70 28 30 42 29 68 -7z m120 -59
c38 -11 66 -24 68 -33 4 -21 -80 -108 -105 -108 -12 0 -35 14 -53 30 -35 32
-36 59 -4 108 17 26 12 26 94 3z m-181 -37 c23 -30 27 -49 10 -60 -14 -8 -69
45 -69 68 0 27 35 22 59 -8z m367 -35 c3 -6 7 -29 8 -50 1 -21 10 -47 19 -57
9 -10 17 -33 17 -50 0 -19 7 -36 19 -44 28 -19 73 -106 66 -127 -9 -30 -142
-89 -213 -95 -61 -6 -62 -5 -57 17 5 19 -22 67 -60 105 -1 2 -14 -8 -28 -22
-15 -14 -32 -26 -40 -26 -17 0 -10 -65 9 -81 23 -19 17 -49 -8 -49 -13 0 -28
4 -33 8 -19 14 -38 61 -32 81 3 14 -1 22 -14 26 -10 4 -22 17 -25 30 -6 26 12
95 26 95 5 0 11 9 15 19 3 11 30 38 60 61 55 43 85 47 85 13 1 -17 1 -17 11 0
5 9 18 17 29 17 25 0 50 10 50 21 0 5 -8 9 -17 9 -10 0 -25 5 -33 10 -12 8
-10 14 14 39 48 50 116 76 132 50z m-282 -60 c20 -12 36 -29 36 -39 0 -10 -19
-35 -42 -55 -39 -36 -42 -37 -55 -19 -14 19 -11 60 7 110 11 29 10 29 54 3z
m-66 -394 c30 -34 28 -56 -10 -88 -45 -40 -59 -30 -51 35 5 50 17 78 32 78 4
0 17 -11 29 -25z m2794 -63 c5 -5 5 -19 -1 -34 -5 -14 -11 -50 -12 -80 -2 -45
2 -59 19 -78 12 -13 22 -28 22 -32 0 -5 25 -20 54 -34 31 -14 58 -34 61 -44 8
-24 24 -25 72 -5 19 8 55 15 79 15 24 0 84 14 134 30 103 34 110 35 110 16 0
-7 12 -21 26 -31 24 -16 25 -18 10 -40 -9 -14 -16 -38 -16 -55 0 -40 -19 -46
-70 -20 -88 45 -288 34 -363 -21 -38 -28 -58 -21 -82 27 -22 45 -67 78 -83 62
-11 -11 -74 -1 -99 17 -14 10 -21 10 -38 0 -11 -7 -37 -16 -57 -19 -50 -9 -73
14 -82 84 -8 60 -1 70 49 70 l30 0 -28 23 c-44 35 -35 75 24 107 25 14 53 32
62 41 13 14 32 16 93 14 42 -2 81 -8 86 -13z m-1315 -68 c10 -26 -11 -49 -43
-49 -25 0 -29 4 -32 33 -3 31 -2 32 33 32 24 0 38 -5 42 -16z m1773 -18 c0
-14 5 -37 11 -53 9 -25 7 -31 -23 -57 -43 -36 -94 -59 -119 -51 -26 9 -25 12
21 73 22 29 40 57 40 62 0 15 38 50 55 50 9 0 15 -9 15 -24z m-4081 0 c7 -8
10 -38 9 -70 -2 -31 0 -56 4 -56 12 0 10 -28 -2 -35 -6 -4 -17 -2 -25 5 -10 9
-21 7 -45 -5 -38 -20 -130 -27 -148 -13 -7 6 -10 19 -6 31 3 11 1 23 -6 27 -9
5 -9 17 -1 48 10 36 16 42 60 57 26 8 55 13 64 9 9 -3 24 -1 34 5 25 15 48 13
62 -3z m55 -22 c10 -25 7 -64 -4 -64 -15 0 -34 46 -27 64 8 20 23 20 31 0z
m1906 -18 c0 -16 -27 -29 -41 -20 -13 8 9 34 27 34 8 0 14 -6 14 -14z m150
-21 c0 -19 -24 -29 -46 -21 -13 5 -14 9 -4 21 16 20 50 19 50 0z m-10 -100 c0
-8 -2 -15 -4 -15 -2 0 -11 -3 -20 -6 -10 -4 -16 -1 -16 9 0 14 13 24 33 26 4
1 7 -6 7 -14z m-2822 -52 c-4 -22 -48 -31 -48 -10 0 19 10 27 32 27 13 0 18
-6 16 -17z m3686 -69 c18 -17 22 -99 6 -109 -14 -9 -70 27 -70 45 0 15 36 80
44 80 3 0 12 -7 20 -16z m-3254 -17 c0 -8 -9 -22 -20 -32 -11 -10 -20 -26 -20
-35 0 -18 -87 -82 -130 -95 -35 -11 -161 -79 -252 -136 -42 -27 -83 -49 -90
-49 -7 1 -22 15 -33 33 -24 38 -49 42 -53 8 -3 -15 0 -21 8 -16 15 9 40 -13
40 -35 0 -24 -31 -35 -45 -17 -9 12 -12 12 -23 1 -8 -9 -36 -14 -81 -14 -77 0
-142 -23 -181 -65 -13 -14 -44 -37 -69 -52 -25 -15 -72 -46 -103 -69 -45 -33
-72 -44 -124 -53 -37 -7 -80 -9 -96 -6 -56 13 -96 -2 -117 -44 -24 -47 -42
-61 -77 -64 -19 -1 -29 3 -32 15 -7 34 19 95 61 142 42 49 45 50 95 47 40 -1
52 1 52 12 0 8 6 20 14 26 11 10 18 7 34 -10 13 -13 25 -18 34 -13 37 22 91
72 108 100 15 24 30 33 59 38 21 3 44 13 51 21 7 8 24 15 39 15 19 0 32 10 48
35 17 26 32 35 60 40 54 9 68 18 69 49 1 15 12 38 25 52 21 23 29 25 69 19
105 -17 127 -10 240 71 25 19 41 23 60 18 14 -4 34 -6 45 -5 11 1 34 3 50 5
17 1 50 9 73 16 34 11 48 11 63 2 16 -10 26 -7 65 23 47 36 84 45 84 22z m632
-75 c-2 -28 -13 -57 -26 -71 -30 -33 -165 -141 -178 -141 -5 0 -21 -9 -35 -20
-17 -13 -41 -20 -68 -20 -44 0 -70 -18 -77 -55 -4 -21 -65 -68 -82 -62 -6 2
-22 -5 -36 -15 -23 -18 -25 -18 -37 -2 -7 10 -13 30 -13 45 0 56 -11 63 -36
25 -29 -42 -29 -42 -4 -49 24 -6 37 -52 20 -72 -8 -10 -30 -15 -62 -15 -37 0
-50 -4 -55 -17 -13 -35 -65 -92 -79 -86 -10 4 -14 -3 -14 -25 0 -37 -6 -42
-67 -46 -38 -3 -49 -8 -51 -24 -2 -14 -23 -27 -73 -47 l-69 -28 -30 28 c-17
16 -30 32 -30 37 0 4 24 21 54 38 69 39 84 57 101 120 9 34 29 69 60 106 45
52 55 58 83 55 6 -1 12 7 12 19 0 51 157 170 225 170 14 0 34 -11 47 -25 14
-16 25 -22 33 -15 6 5 16 5 25 0 25 -16 73 -11 113 10 47 25 55 25 84 -2 l24
-22 6 22 c3 14 22 30 52 43 73 32 131 97 131 148 0 25 26 52 44 45 10 -4 12
-18 8 -52z m366 -112 c60 -99 56 -113 -33 -123 -27 -4 -62 -9 -77 -13 -37 -8
-36 9 2 60 33 43 38 61 15 52 -16 -6 -45 29 -45 55 0 10 12 22 28 27 56 21 67
16 110 -58z m3457 24 c24 -10 58 -81 43 -90 -20 -13 -72 -5 -85 13 -18 24 -16
60 5 72 21 13 17 12 37 5z m170 -73 c7 -12 -12 -24 -25 -16 -11 7 -4 25 10 25
5 0 11 -4 15 -9z m-4778 -87 c13 -34 -166 -188 -232 -199 -29 -6 -51 -20 -81
-51 -23 -24 -45 -44 -48 -44 -4 0 -23 -16 -41 -36 -43 -46 -75 -44 -89 6 -6
19 -18 42 -29 53 -14 14 -16 21 -6 33 6 8 17 14 23 14 17 0 56 55 56 78 0 21
18 42 37 42 7 0 13 -7 13 -15 0 -23 16 -18 76 20 30 19 73 39 97 45 23 5 76
23 117 39 88 35 99 36 107 15z m1188 -64 c7 -12 -9 -43 -50 -95 -17 -22 -36
-52 -43 -67 -10 -25 -17 -28 -59 -28 -41 0 -45 -2 -29 -13 16 -12 16 -14 -8
-38 -26 -26 -26 -26 -157 -19 -16 1 -28 57 -20 93 13 53 34 73 94 88 29 6 64
18 79 25 15 8 40 14 56 14 16 0 49 11 73 24 51 28 56 29 64 16z m3444 -58 c-6
-18 -8 -43 -5 -57 5 -20 -2 -30 -46 -64 -29 -22 -56 -37 -60 -35 -12 8 -9 36
7 68 8 15 15 36 15 46 0 23 79 95 91 83 6 -6 5 -22 -2 -41z m-2974 -82 c-3 -5
-11 -10 -16 -10 -6 0 -7 5 -4 10 3 6 11 10 16 10 6 0 7 -4 4 -10z m-2265 -67
c0 -4 -12 -19 -27 -35 -39 -41 -23 -43 24 -3 71 60 93 43 57 -45 -12 -30 -32
-86 -44 -123 -25 -78 -52 -103 -100 -92 -25 5 -29 4 -24 -9 5 -12 0 -16 -18
-16 -27 0 -80 -57 -93 -100 -9 -29 -64 -90 -81 -90 -7 0 -22 -13 -34 -29 -11
-17 -29 -33 -40 -36 -11 -3 -34 -32 -51 -65 -20 -36 -44 -64 -63 -74 -17 -9
-48 -30 -68 -47 -31 -27 -40 -30 -53 -19 -8 7 -15 21 -15 32 0 27 68 124 130
183 28 28 65 75 81 106 40 75 82 119 113 119 31 0 56 34 56 77 0 32 -1 33 -42
33 -50 0 -78 -22 -78 -61 0 -35 -34 -67 -108 -105 -36 -18 -66 -43 -86 -71
-35 -50 -55 -54 -101 -19 -18 14 -47 29 -66 33 l-34 9 -8 80 c-11 115 -11 122
8 150 28 42 94 66 164 58 54 -6 62 -4 95 21 61 46 157 86 256 105 52 11 109
24 125 29 35 11 125 14 125 4z m1427 -39 c5 -15 -32 -64 -49 -64 -20 0 -19 33
2 56 27 28 38 30 47 8z m-81 -77 c7 -4 15 -28 19 -53 8 -57 -2 -67 -65 -59
-50 7 -125 -6 -183 -32 -20 -9 -40 -13 -43 -10 -9 9 16 67 38 89 10 10 18 25
18 33 0 26 47 40 127 40 43 0 83 -4 89 -8z m-336 -111 c-6 -20 -16 -34 -21
-31 -13 9 -11 59 3 73 21 21 31 -3 18 -42z m-592 -7 c-3 -22 1 -34 15 -44 15
-11 17 -17 8 -34 -13 -23 -45 -34 -87 -29 -27 3 -29 6 -28 47 1 35 7 49 28 68
15 13 36 23 48 23 17 0 20 -5 16 -31z m-1639 -5 c17 -4 31 -12 31 -19 0 -21
-81 -105 -100 -105 -17 0 -18 6 -13 53 8 76 17 84 82 71z m211 -73 c0 -11 -5
-21 -11 -23 -7 -2 -11 -42 -10 -110 0 -67 -5 -126 -14 -155 -8 -26 -15 -69
-15 -94 0 -29 -6 -51 -15 -59 -8 -7 -15 -19 -15 -26 0 -8 -14 -26 -30 -41 -17
-14 -35 -44 -42 -65 -12 -41 -31 -63 -46 -54 -12 7 -6 119 9 163 6 19 9 35 7
37 -1 1 -15 10 -30 19 -15 9 -33 29 -40 44 -7 15 -28 35 -47 44 -38 18 -61 44
-61 70 0 26 63 83 173 156 53 35 102 73 108 84 7 14 16 18 30 14 11 -4 19 -2
19 4 0 6 7 11 15 11 8 0 15 -9 15 -19z m1183 -88 c37 -15 38 -17 35 -61 -2
-33 -9 -48 -25 -59 -21 -14 -24 -13 -40 17 -21 39 -38 57 -77 86 -61 44 10 55
107 17z m574 11 c2 -5 -13 -18 -33 -29 -23 -12 -43 -34 -56 -62 -14 -31 -28
-45 -47 -49 -14 -3 -37 -10 -51 -16 -24 -9 -24 -10 -5 -20 29 -16 30 -16 12
-35 -8 -10 -31 -54 -49 -98 -40 -95 -158 -277 -199 -307 -16 -12 -29 -29 -29
-39 0 -18 -138 -212 -172 -241 -25 -22 -91 -24 -107 -4 -20 24 -10 70 17 74
12 2 29 14 38 27 8 13 29 28 45 34 23 8 29 16 29 39 0 16 -9 37 -20 47 -20 18
-20 19 -2 39 10 12 29 50 42 85 17 45 32 69 51 80 29 16 39 37 39 84 0 17 6
30 18 33 40 13 64 30 131 92 57 52 69 68 60 79 -19 22 5 62 41 69 29 6 57 28
93 73 14 17 25 21 43 17 19 -5 33 0 56 19 30 25 49 28 55 9z m-961 -229 c-36
-46 -140 -135 -159 -135 -5 0 -28 -20 -51 -45 -25 -27 -51 -45 -64 -45 -30 0
-28 15 7 39 18 13 31 33 35 55 4 23 19 44 42 63 19 15 54 45 78 66 63 54 117
79 134 63 12 -11 8 -21 -22 -61z m484 65 c12 -8 12 -12 0 -36 -8 -15 -27 -40
-42 -55 -16 -15 -28 -33 -28 -39 0 -12 -76 -49 -102 -50 -25 0 -22 27 3 35 23
8 59 61 59 87 0 9 19 28 43 42 48 29 47 29 67 16z m-440 -165 c0 -25 -137
-115 -175 -115 -8 0 -15 9 -15 19 0 22 35 51 61 51 9 0 20 7 23 15 6 17 60 44
89 45 9 0 17 -7 17 -15z m300 -52 c0 -10 -4 -24 -9 -31 -10 -16 -136 -82 -156
-82 -8 0 -19 -9 -25 -20 -6 -11 -17 -20 -25 -20 -7 0 -26 -15 -42 -34 -36 -44
-104 -67 -130 -44 -10 9 -28 19 -40 22 -26 8 -30 28 -9 45 7 6 47 20 88 30 44
11 126 46 199 85 68 36 130 66 137 66 6 0 12 -8 12 -17z m-1742 -42 c2 -32 0
-42 -10 -39 -17 6 -33 51 -25 73 12 29 32 10 35 -34z m-8 -95 c0 -33 -20 -64
-49 -76 -21 -8 -31 -19 -31 -34 0 -50 56 -62 88 -19 19 26 21 26 61 14 51 -15
63 -38 32 -60 -12 -9 -38 -31 -56 -48 -36 -35 -75 -44 -75 -18 0 9 -9 15 -22
15 -21 0 -21 0 -2 -21 19 -21 18 -21 -5 -40 -13 -10 -34 -19 -46 -19 -20 0
-24 6 -27 48 -3 30 0 53 9 63 18 22 16 48 -4 56 -11 4 -22 -1 -31 -15 -18 -28
-42 -28 -42 -2 0 29 38 63 63 56 27 -7 57 10 57 34 0 23 47 80 66 80 8 0 14
-6 14 -14z m594 -49 c10 -56 -5 -101 -39 -120 -12 -6 -37 -20 -55 -30 -28 -16
-34 -17 -54 -4 -20 14 -22 21 -16 70 7 65 19 81 80 112 63 32 73 28 84 -28z
m16 -188 c0 -19 -98 -111 -112 -107 -8 3 -13 21 -13 44 0 32 4 40 22 42 12 2
27 10 33 18 15 17 70 19 70 3z m20 -68 c0 -26 -38 -71 -60 -71 -33 0 -33 21 1
56 37 38 59 44 59 15z m61 -337 c-16 -35 -25 -44 -34 -35 -8 8 -5 23 12 57 16
35 25 44 34 35 8 -8 5 -23 -12 -57z m-161 -70 c14 -37 12 -64 -6 -71 -33 -13
-65 54 -39 81 23 22 34 20 45 -10z m120 -49 c0 -8 -4 -15 -10 -15 -5 0 -10 7
-10 15 0 8 5 15 10 15 6 0 10 -7 10 -15z m-708 -172 c25 -23 23 -34 -16 -72
-29 -28 -37 -31 -55 -22 -29 16 -26 49 6 83 31 32 40 34 65 11z"/>
<path d="M9564 7995 c-19 -46 -13 -54 15 -19 23 30 26 40 11 49 -6 4 -17 -10
-26 -30z"/>
<path d="M9025 5889 c-4 -6 -4 -13 -1 -16 8 -8 36 5 36 17 0 13 -27 13 -35 -1z"/>
<path d="M8880 5795 c0 -8 4 -15 9 -15 5 0 11 -8 14 -17 4 -17 4 -17 12 0 4
10 2 23 -5 32 -16 19 -30 19 -30 0z"/>
<path d="M8738 5729 c-24 -14 -23 -56 2 -69 42 -22 82 34 48 68 -14 14 -27 15
-50 1z"/>
<path d="M8076 5400 c-48 -54 -47 -77 2 -71 8 1 20 -3 28 -10 21 -18 29 -3 14
26 -10 19 -11 30 -2 50 27 58 8 60 -42 5z"/>
<path d="M3870 3770 c0 -13 7 -20 20 -20 13 0 20 7 20 20 0 13 -7 20 -20 20
-13 0 -20 -7 -20 -20z"/>
<path d="M12560 8560 c0 -5 5 -10 10 -10 6 0 10 5 10 10 0 6 -4 10 -10 10 -5
0 -10 -4 -10 -10z"/>
<path d="M8290 8551 c0 -5 -3 -17 -7 -27 -4 -11 -3 -15 4 -11 14 9 24 47 12
47 -5 0 -9 -4 -9 -9z"/>
<path d="M6046 8519 c-9 -48 -7 -124 3 -113 14 13 26 144 13 144 -5 0 -12 -14
-16 -31z"/>
<path d="M9255 8514 c-9 -14 -14 -28 -12 -31 7 -6 47 34 47 47 0 18 -17 10
-35 -16z"/>
<path d="M9415 8530 c-3 -5 -2 -10 4 -10 5 0 13 5 16 10 3 6 2 10 -4 10 -5 0
-13 -4 -16 -10z"/>
<path d="M11055 8520 c-3 -5 1 -10 9 -10 9 0 16 5 16 10 0 6 -4 10 -9 10 -6 0
-13 -4 -16 -10z"/>
<path d="M8801 8447 c-12 -20 -21 -42 -19 -49 2 -6 14 5 27 25 12 20 21 42 19
49 -2 6 -14 -5 -27 -25z"/>
<path d="M8348 8459 c-10 -5 -18 -19 -18 -30 0 -12 -38 -60 -91 -115 -89 -94
-104 -118 -57 -93 30 16 130 93 147 113 22 26 51 20 62 -14 11 -31 29 -41 29
-16 0 7 -7 33 -15 56 -8 23 -15 58 -15 76 0 35 -11 41 -42 23z"/>
<path d="M10247 8444 c-3 -4 4 -20 16 -38 12 -17 23 -33 25 -35 1 -3 6 0 11 5
21 23 -30 90 -52 68z"/>
<path d="M9067 8416 c-4 -10 4 -15 28 -18 33 -4 34 -3 18 14 -19 22 -39 23
-46 4z"/>
<path d="M10775 8410 c-3 -5 1 -10 9 -10 9 0 16 5 16 10 0 6 -4 10 -9 10 -6 0
-13 -4 -16 -10z"/>
<path d="M8608 8341 c-32 -31 -65 -67 -74 -81 -9 -14 20 11 65 55 44 44 81 81
81 82 0 10 -22 -7 -72 -56z"/>
<path d="M10170 8375 c0 -8 5 -15 10 -15 6 0 10 7 10 15 0 8 -4 15 -10 15 -5
0 -10 -7 -10 -15z"/>
<path d="M11240 8343 c-86 -37 -200 -132 -200 -167 0 -34 60 -26 133 18 49 28
147 130 147 151 0 19 -34 18 -80 -2z"/>
<path d="M10675 8330 c17 -19 17 -36 -2 -87 -4 -13 3 -10 25 11 49 45 36 96
-24 96 -16 0 -16 -1 1 -20z"/>
<path d="M10946 8337 c-15 -12 -76 -137 -76 -157 0 -7 8 -6 23 1 12 7 29 15
37 19 19 8 60 87 60 116 0 26 -22 37 -44 21z"/>
<path d="M11975 8298 c-69 -35 -96 -68 -56 -68 20 0 111 66 111 80 0 14 -10
12 -55 -12z"/>
<path d="M8550 8136 c0 -24 25 -54 36 -43 3 3 3 19 -1 36 -8 37 -35 42 -35 7z"/>
<path d="M8126 8136 c-21 -7 -47 -24 -58 -39 -22 -30 -44 -34 -67 -12 -15 12
-21 8 -61 -42 -97 -120 -154 -222 -137 -240 11 -10 37 18 95 100 57 82 76 97
95 78 30 -30 72 3 106 82 13 31 29 51 46 57 14 5 25 14 25 20 0 5 -1 10 -2 9
-2 -1 -20 -6 -42 -13z"/>
<path d="M11520 8130 c-8 -5 -10 -10 -5 -10 6 0 17 5 25 10 8 5 11 10 5 10 -5
0 -17 -5 -25 -10z"/>
<path d="M5067 8102 c-15 -22 -26 -72 -17 -77 15 -9 31 24 28 57 -2 22 -6 29
-11 20z"/>
<path d="M12285 8091 c-6 -11 9 -23 19 -14 9 9 7 23 -3 23 -6 0 -12 -4 -16 -9z"/>
<path d="M7494 8056 c-62 -27 -91 -79 -59 -106 21 -17 58 -5 100 31 37 33 46
72 19 83 -21 8 -24 8 -60 -8z"/>
<path d="M8412 8040 c0 -14 2 -19 5 -12 2 6 2 18 0 25 -3 6 -5 1 -5 -13z"/>
<path d="M5138 8015 c-6 -14 -8 -28 -5 -31 10 -11 37 17 37 37 0 27 -18 23
-32 -6z"/>
<path d="M4054 8006 c-8 -22 2 -84 17 -102 15 -18 58 -18 65 0 7 18 -17 65
-50 95 -23 21 -26 22 -32 7z"/>
<path d="M8102 7988 c-14 -14 -16 -38 -3 -38 6 0 23 11 38 25 l28 24 -25 1
c-15 0 -31 -5 -38 -12z"/>
<path d="M11018 7988 c-33 -11 -37 -28 -7 -28 28 0 61 19 54 31 -7 11 -11 11
-47 -3z"/>
<path d="M6426 7868 c-18 -25 -21 -48 -6 -48 14 0 42 58 31 65 -5 3 -17 -5
-25 -17z"/>
<path d="M7974 7867 c-9 -24 0 -52 16 -52 21 0 24 39 6 55 -13 10 -17 9 -22
-3z"/>
<path d="M4980 7851 c-13 -25 -13 -61 0 -61 11 0 30 42 30 66 0 20 -18 17 -30
-5z"/>
<path d="M6080 7825 c0 -8 4 -15 10 -15 5 0 7 7 4 15 -4 8 -8 15 -10 15 -2 0
-4 -7 -4 -15z"/>
<path d="M8062 7807 c-26 -27 -28 -37 -7 -37 16 0 38 35 33 51 -2 6 -13 0 -26
-14z"/>
<path d="M8496 7814 c-22 -21 -20 -47 4 -69 11 -10 20 -24 20 -32 0 -27 19
-12 29 25 14 48 14 65 -1 80 -16 16 -33 15 -52 -4z"/>
<path d="M6618 7799 c-21 -12 -24 -49 -4 -49 8 0 22 7 30 16 33 32 13 56 -26
33z"/>
<path d="M12258 7783 c-10 -2 -18 -9 -18 -14 0 -15 63 -6 68 9 4 12 -16 14
-50 5z"/>
<path d="M8406 7743 c-4 -9 -2 -21 3 -26 15 -15 41 0 41 23 0 25 -35 28 -44 3z"/>
<path d="M10927 7675 c-3 -20 -1 -25 12 -23 9 2 17 13 19 26 5 31 -24 29 -31
-3z"/>
<path d="M8377 7666 c-6 -16 2 -28 14 -20 12 7 11 34 0 34 -5 0 -11 -6 -14
-14z"/>
<path d="M3440 7554 c0 -3 16 -12 36 -20 27 -11 40 -12 48 -4 8 8 7 13 -4 20
-16 10 -80 14 -80 4z"/>
<path d="M6791 7534 c0 -11 3 -14 6 -6 3 7 2 16 -1 19 -3 4 -6 -2 -5 -13z"/>
<path d="M7223 7517 c3 -17 12 -48 20 -67 l15 -35 1 48 c1 50 -12 87 -31 87
-6 0 -9 -12 -5 -33z"/>
<path d="M12534 7519 c-6 -10 11 -29 26 -29 3 0 11 4 19 9 17 11 5 31 -19 31
-10 0 -22 -5 -26 -11z"/>
<path d="M7378 7409 c-24 -58 -10 -72 18 -18 27 51 28 59 12 59 -7 0 -21 -19
-30 -41z"/>
<path d="M11050 7420 c-11 -7 -6 -10 22 -10 20 0 40 5 43 10 8 13 -45 13 -65
0z"/>
<path d="M11875 7393 c-47 -12 -60 -43 -17 -43 25 0 92 33 92 45 0 6 -47 5
-75 -2z"/>
<path d="M4020 7371 c0 -11 5 -23 10 -26 6 -3 10 3 10 14 0 11 -4 23 -10 26
-5 3 -10 -3 -10 -14z"/>
<path d="M6741 7383 c0 -5 4 -17 9 -28 8 -18 9 -17 9 8 1 15 -3 27 -9 27 -5 0
-10 -3 -9 -7z"/>
<path d="M6661 7354 c-25 -31 -26 -44 -7 -44 15 0 56 45 56 61 0 18 -29 8 -49
-17z"/>
<path d="M1644 7355 c-7 -18 3 -35 21 -35 21 0 28 19 15 35 -16 19 -29 19 -36
0z"/>
<path d="M11470 7360 c0 -5 9 -10 20 -10 11 0 20 5 20 10 0 6 -9 10 -20 10
-11 0 -20 -4 -20 -10z"/>
<path d="M7833 7353 c-7 -3 -13 -11 -13 -19 0 -16 45 -20 55 -5 7 12 -25 30
-42 24z"/>
<path d="M10193 7299 c-18 -11 -35 -30 -39 -42 -3 -12 -23 -40 -44 -62 -22
-23 -44 -59 -51 -85 -7 -25 -21 -57 -32 -71 -48 -67 -22 -158 49 -178 53 -15
83 -5 129 41 22 22 60 54 85 72 48 34 90 96 90 135 0 53 -22 98 -56 114 -27
13 -33 22 -36 54 -3 34 -6 38 -33 40 -16 1 -44 -7 -62 -18z"/>
<path d="M12063 7280 c-65 -7 -113 -31 -113 -55 0 -19 34 -28 73 -20 42 9 128
57 124 69 -4 13 -14 14 -84 6z"/>
<path d="M9823 7203 c-43 -6 -42 -23 0 -23 19 0 68 -3 110 -6 65 -6 77 -5 77
8 0 25 -82 34 -187 21z"/>
<path d="M11092 7183 c-13 -3 -21 -10 -19 -16 6 -16 48 -10 67 8 13 13 12 15
-5 14 -11 -1 -30 -4 -43 -6z"/>
<path d="M12275 7111 c-8 -14 6 -19 42 -14 18 3 30 9 27 14 -7 12 -61 12 -69
0z"/>
<path d="M3632 7054 c4 -20 34 -41 45 -31 10 11 -11 41 -31 45 -12 3 -17 -2
-14 -14z"/>
<path d="M11153 6983 c9 -2 23 -2 30 0 6 3 -1 5 -18 5 -16 0 -22 -2 -12 -5z"/>
<path d="M11520 6922 c0 -6 9 -14 20 -17 29 -9 24 -23 -15 -42 -20 -9 -35 -24
-35 -34 0 -23 -16 -34 -73 -49 -52 -14 -67 -28 -46 -41 20 -12 11 -16 -67 -32
-85 -18 -144 -42 -144 -58 0 -21 211 -4 319 26 52 14 101 31 108 37 10 8 12
24 7 55 l-6 43 45 20 c26 11 49 24 52 29 6 10 -18 21 -45 21 -9 0 -24 9 -31
19 -15 22 -89 40 -89 23z"/>
<path d="M1097 6888 c-23 -18 -37 -63 -31 -97 14 -70 98 -99 149 -51 56 53 13
160 -64 160 -20 0 -45 -6 -54 -12z"/>
<path d="M9515 6856 c-18 -13 -18 -14 8 -9 15 3 24 9 21 14 -7 12 -7 12 -29
-5z"/>
<path d="M10385 6860 c3 -5 24 -10 46 -10 24 0 38 4 34 10 -3 6 -24 10 -46 10
-24 0 -38 -4 -34 -10z"/>
<path d="M11825 6823 c-31 -10 -43 -18 -32 -20 17 -4 117 24 117 33 0 8 -36 2
-85 -13z"/>
<path d="M9550 6791 c-5 -11 -6 -22 -1 -25 11 -7 43 28 34 37 -11 12 -22 8
-33 -12z"/>
<path d="M3900 6755 c0 -22 29 -75 40 -75 15 0 12 27 -5 60 -17 32 -35 40 -35
15z"/>
<path d="M5581 6734 c0 -11 3 -14 6 -6 3 7 2 16 -1 19 -3 4 -6 -2 -5 -13z"/>
<path d="M6020 6691 c0 -5 5 -13 10 -16 6 -3 10 -2 10 4 0 5 -4 13 -10 16 -5
3 -10 2 -10 -4z"/>
<path d="M11790 6670 c0 -5 12 -10 28 -10 21 0 24 2 12 10 -20 13 -40 13 -40
0z"/>
<path d="M9044 6615 c-22 -15 -12 -45 15 -45 17 0 41 26 41 43 0 12 -41 13
-56 2z"/>
<path d="M4210 6471 c0 -44 8 -71 21 -71 10 0 12 54 3 88 -10 35 -24 26 -24
-17z"/>
<path d="M11700 6450 c-12 -8 -11 -10 7 -10 12 0 25 5 28 10 8 13 -15 13 -35
0z"/>
<path d="M11236 6389 c-88 -22 -196 -66 -196 -82 0 -17 99 2 214 41 164 55
152 83 -18 41z"/>
<path d="M12243 6033 c15 -2 39 -2 55 0 15 2 2 4 -28 4 -30 0 -43 -2 -27 -4z"/>
<path d="M1427 5983 c-12 -11 -7 -40 9 -53 12 -11 18 -11 29 1 13 13 13 17 -1
37 -16 23 -26 27 -37 15z"/>
<path d="M9750 5972 c0 -6 9 -12 20 -15 11 -3 20 -3 20 -1 0 2 -9 8 -20 14
-11 6 -20 7 -20 2z"/>
<path d="M9970 5829 c-23 -42 14 -66 51 -33 14 13 16 21 8 35 -13 25 -46 24
-59 -2z"/>
<path d="M11285 5840 c3 -5 16 -10 28 -10 18 0 19 2 7 10 -20 13 -43 13 -35 0z"/>
<path d="M11995 5765 c46 -15 99 -20 75 -6 -8 5 -37 11 -65 14 l-50 5 40 -13z"/>
<path d="M10142 5739 c3 -27 40 -38 63 -19 10 8 47 11 107 10 51 -2 122 -2
158 -1 122 4 28 21 -157 28 l-175 6 4 -24z"/>
<path d="M2894 5690 c-40 -16 -64 -59 -64 -115 0 -61 15 -79 85 -100 45 -14
48 -14 81 12 43 32 54 52 54 97 0 45 -39 92 -88 106 -43 11 -40 11 -68 0z"/>
<path d="M10191 5490 c-18 -4 -43 -17 -54 -29 -20 -20 -20 -22 -4 -38 39 -39
217 -8 217 38 0 10 -8 20 -17 22 -40 11 -110 15 -142 7z"/>
<path d="M2563 5458 c-6 -7 -13 -23 -17 -34 -5 -18 -2 -22 19 -26 37 -7 74 24
59 49 -14 22 -47 28 -61 11z"/>
<path d="M10918 5195 c-100 -28 -143 -75 -69 -75 45 0 146 49 146 70 0 19 -20
20 -77 5z"/>
<path d="M3015 5160 c-8 -13 3 -30 20 -30 14 0 27 24 18 34 -10 9 -31 7 -38
-4z"/>
<path d="M3043 5063 c-35 -39 -41 -53 -20 -53 14 0 61 48 70 73 11 29 -16 19
-50 -20z"/>
<path d="M10008 4963 c-22 -5 -23 -19 -4 -26 20 -8 88 12 81 24 -6 9 -46 10
-77 2z"/>
<path d="M10490 4928 c-26 -16 -31 -23 -18 -26 20 -4 78 24 78 38 0 16 -23 11
-60 -12z"/>
<path d="M11262 4920 c-39 -9 -46 -15 -37 -29 12 -20 181 -8 203 14 22 22 -93
32 -166 15z"/>
<path d="M6726 4842 c-3 -6 -1 -14 5 -17 15 -10 25 3 12 16 -7 7 -13 7 -17 1z"/>
<path d="M12050 4802 c0 -13 73 -29 170 -36 l75 -6 -60 21 c-71 24 -185 37
-185 21z"/>
<path d="M10020 4760 c0 -5 7 -10 15 -10 8 0 15 5 15 10 0 6 -7 10 -15 10 -8
0 -15 -4 -15 -10z"/>
<path d="M6720 4728 c0 -16 7 -31 15 -34 19 -8 79 27 83 49 3 14 -4 17 -47 15
-49 -2 -51 -4 -51 -30z"/>
<path d="M7147 4744 c-14 -14 -7 -25 13 -22 12 2 21 8 21 13 0 12 -24 18 -34
9z"/>
<path d="M12013 4713 c9 -2 25 -2 35 0 9 3 1 5 -18 5 -19 0 -27 -2 -17 -5z"/>
<path d="M2577 4654 c-16 -16 -6 -35 16 -32 12 2 22 10 22 18 0 16 -26 25 -38
14z"/>
<path d="M7010 4645 c-17 -20 9 -21 36 0 19 14 19 14 -2 15 -12 0 -27 -7 -34
-15z"/>
<path d="M1770 4493 c0 -5 9 -18 20 -28 11 -10 20 -14 20 -8 0 5 -9 18 -20 28
-11 10 -20 14 -20 8z"/>
<path d="M5735 4436 c-76 -15 -83 -20 -106 -71 -26 -58 -43 -71 -75 -57 -22
11 -26 9 -34 -12 -5 -13 -6 -49 -3 -80 l6 -55 28 20 c15 11 43 52 63 92 46 95
86 133 167 157 71 21 46 24 -46 6z"/>
<path d="M872 4388 c-28 -28 -3 -70 50 -83 56 -14 91 41 50 78 -22 20 -83 22
-100 5z"/>
<path d="M10044 4185 c22 -17 46 -20 46 -6 0 5 -10 11 -22 15 -37 9 -44 6 -24
-9z"/>
<path d="M7314 4121 c-68 -17 -134 -98 -134 -165 0 -30 31 -96 54 -115 10 -9
16 -29 16 -56 0 -31 8 -53 30 -83 27 -38 32 -40 67 -35 21 3 50 12 65 19 29
15 68 60 68 79 0 17 33 45 54 45 21 0 32 28 17 43 -20 20 -13 57 14 67 33 13
32 26 -2 25 -24 0 -28 5 -35 44 -4 24 -14 54 -22 66 -33 51 -125 82 -192 66z"/>
<path d="M6908 4073 c7 -3 16 -2 19 1 4 3 -2 6 -13 5 -11 0 -14 -3 -6 -6z"/>
<path d="M5432 4013 c2 -17 10 -29 21 -31 25 -5 22 35 -4 48 -19 11 -20 9 -17
-17z"/>
<path d="M1712 4018 c-22 -22 -14 -63 18 -91 18 -17 27 -33 24 -42 -6 -16 12
-45 28 -45 18 0 20 31 3 50 -17 19 -17 21 -2 38 20 22 22 73 5 90 -7 7 -24 12
-38 12 -14 0 -31 -5 -38 -12z"/>
<path d="M1603 3911 c-32 -27 -29 -33 15 -29 29 2 37 7 37 23 0 26 -25 29 -52
6z"/>
<path d="M1580 3812 c0 -9 7 -13 20 -9 11 3 23 1 26 -4 3 -5 16 -9 30 -9 21 0
23 3 15 17 -12 22 -91 26 -91 5z"/>
<path d="M1410 3800 c0 -5 7 -10 15 -10 8 0 15 5 15 10 0 6 -7 10 -15 10 -8 0
-15 -4 -15 -10z"/>
<path d="M8020 3782 c-109 -53 -135 -85 -132 -163 5 -109 102 -171 217 -139
111 31 187 202 117 262 -22 20 -120 68 -135 67 -7 0 -37 -13 -67 -27z"/>
<path d="M1384 3619 c-10 -17 13 -36 27 -22 12 12 4 33 -11 33 -5 0 -12 -5
-16 -11z"/>
<path d="M42 3454 c-32 -22 -26 -64 11 -82 24 -12 31 -11 53 2 28 19 32 57 8
80 -20 20 -44 20 -72 0z"/>
<path d="M7372 3360 c-102 -37 -161 -85 -198 -165 -65 -138 6 -296 159 -354
32 -11 63 -21 69 -21 6 0 17 -8 24 -17 12 -16 14 -17 26 -2 7 9 38 21 68 28
30 6 75 23 100 37 l44 25 16 -21 c12 -16 18 -18 28 -8 9 9 8 16 -4 30 -16 16
-14 21 20 70 51 75 64 148 40 224 -32 102 -89 148 -221 178 -90 20 -106 20
-171 -4z"/>
<path d="M1567 3053 c-13 -12 -7 -54 8 -59 21 -9 45 14 45 42 0 18 -5 24 -23
24 -13 0 -27 -3 -30 -7z"/>
<path d="M2674 2909 c-3 -6 -2 -15 4 -21 13 -13 32 -2 32 18 0 16 -26 19 -36
3z"/>
<path d="M2870 2870 c0 -5 7 -10 15 -10 8 0 15 5 15 10 0 6 -7 10 -15 10 -8 0
-15 -4 -15 -10z"/>
<path d="M870 2831 c0 -12 28 -41 39 -41 18 0 31 26 19 38 -14 14 -58 16 -58
3z"/>
<path d="M7655 2833 c-31 -8 -47 -24 -67 -71 -25 -55 -62 -81 -90 -63 -26 16
-32 8 -48 -69 -16 -74 -2 -118 48 -160 67 -55 134 -52 189 8 43 47 49 71 30
130 l-16 47 28 30 c32 33 46 87 31 115 -8 16 -62 42 -79 39 -3 -1 -15 -4 -26
-6z"/>
<path d="M1020 2801 c0 -4 17 -11 38 -14 20 -3 47 -9 60 -13 16 -5 22 -2 22 9
0 8 -7 18 -16 21 -24 9 -104 7 -104 -3z"/>
<path d="M1204 2796 c-7 -19 3 -36 22 -36 10 0 14 8 12 22 -4 26 -26 36 -34
14z"/>
<path d="M1295 2790 c-8 -14 3 -30 21 -30 8 0 14 9 14 20 0 21 -24 28 -35 10z"/>
<path d="M2910 2771 c0 -29 18 -36 40 -16 24 21 17 35 -16 35 -17 0 -24 -5
-24 -19z"/>
<path d="M1505 2750 c-10 -16 14 -40 41 -40 31 0 41 20 19 37 -22 16 -51 17
-60 3z"/>
<path d="M2831 2731 c-12 -21 -5 -31 20 -31 21 0 31 24 16 39 -16 16 -25 14
-36 -8z"/>
<path d="M7190 2729 c0 -17 37 -56 46 -47 3 3 -6 19 -20 34 -18 21 -25 24 -26
13z"/>
<path d="M11030 2714 c0 -6 116 -60 150 -69 25 -6 25 -6 5 11 -41 33 -155 77
-155 58z"/>
<path d="M2200 2680 c0 -5 5 -10 10 -10 6 0 10 5 10 10 0 6 -4 10 -10 10 -5 0
-10 -4 -10 -10z"/>
<path d="M1210 2624 c0 -9 7 -14 17 -12 25 5 28 28 4 28 -12 0 -21 -6 -21 -16z"/>
<path d="M1090 2590 c0 -5 7 -10 16 -10 8 0 12 5 9 10 -3 6 -10 10 -16 10 -5
0 -9 -4 -9 -10z"/>
<path d="M1135 2540 c-9 -15 4 -30 26 -30 12 0 19 7 19 20 0 21 -33 29 -45 10z"/>
<path d="M1036 2521 c-4 -7 -5 -15 -2 -18 9 -9 19 4 14 18 -4 11 -6 11 -12 0z"/>
<path d="M12190 2515 c0 -9 62 -36 73 -32 7 3 -5 12 -25 21 -39 17 -48 19 -48
11z"/>
<path d="M1078 2469 c-21 -12 -24 -59 -5 -59 8 0 24 11 36 24 34 36 11 60 -31
35z"/>
<path d="M7306 2462 c-3 -5 1 -18 9 -28 14 -18 14 -18 15 3 0 23 -15 39 -24
25z"/>
<path d="M3210 2430 c0 -5 7 -10 15 -10 8 0 15 5 15 10 0 6 -7 10 -15 10 -8 0
-15 -4 -15 -10z"/>
<path d="M740 2410 c-21 -39 32 -87 65 -60 18 15 19 52 3 68 -19 19 -56 14
-68 -8z"/>
<path d="M12620 2290 c20 -13 33 -13 25 0 -3 6 -14 10 -23 10 -15 0 -15 -2 -2
-10z"/>
<path d="M723 2265 c-3 -9 -3 -18 0 -22 10 -10 37 6 37 22 0 20 -29 20 -37 0z"/>
<path d="M4396 2218 c-22 -30 -20 -60 4 -86 68 -72 169 2 115 84 -22 34 -96
35 -119 2z"/>
<path d="M8780 2161 c14 -12 34 -27 45 -33 17 -9 18 -9 8 3 -6 8 -26 22 -45
32 l-33 19 25 -21z"/>
<path d="M7181 2114 c-1 -11 -17 -35 -36 -54 -42 -40 -47 -91 -15 -133 11 -14
20 -28 20 -32 0 -4 -9 -18 -20 -32 -29 -37 -26 -87 6 -112 37 -29 77 -27 116
8 33 29 33 29 20 77 -13 46 -12 48 17 78 39 42 45 66 25 116 -17 43 -43 60
-90 60 -16 0 -28 8 -34 23 -8 21 -9 21 -9 1z"/>
<path d="M3360 2095 c-9 -11 -9 -15 -1 -15 15 0 34 -47 35 -85 1 -30 12 -35
47 -21 13 6 18 -1 23 -28 4 -22 14 -37 26 -41 22 -7 90 4 90 14 0 18 -59 61
-82 61 -34 0 -41 19 -17 45 18 21 18 22 -11 53 -32 36 -87 44 -110 17z"/>
<path d="M3620 2001 c0 -5 6 -14 14 -20 11 -9 16 -9 21 0 4 6 1 15 -6 20 -18
11 -29 11 -29 0z"/>
<path d="M3738 1989 c-17 -9 -17 -12 -3 -39 20 -38 49 -54 74 -41 27 15 34 41
16 67 -17 26 -56 31 -87 13z"/>
<path d="M4186 1928 c-23 -33 -19 -64 10 -87 34 -26 68 -27 94 -1 26 26 25 51
-1 84 -27 34 -81 36 -103 4z"/>
<path d="M6701 1830 c0 -8 6 -26 14 -40 13 -23 14 -23 15 -4 0 11 -7 29 -15
40 -11 14 -14 15 -14 4z"/>
<path d="M3610 1685 c0 -6 13 -26 30 -45 16 -19 29 -30 30 -25 0 6 -13 26 -30
45 -16 19 -29 30 -30 25z"/>
<path d="M3790 1272 c0 -19 26 -66 44 -81 25 -21 19 0 -14 49 -16 25 -30 39
-30 32z"/>
<path d="M8952 1263 c3 -18 68 -61 68 -45 0 5 -9 21 -21 36 -23 29 -52 35 -47
9z"/>
<path d="M7036 1016 c-31 -29 -36 -40 -36 -79 0 -25 -4 -49 -10 -52 -5 -3 -10
-12 -10 -20 0 -14 57 -25 143 -28 43 -2 52 2 78 31 31 35 39 94 19 133 -15 27
-63 49 -109 49 -31 0 -47 -7 -75 -34z"/>
<path d="M9655 680 c21 -24 26 -25 19 -6 -3 8 -13 17 -22 21 -13 5 -13 2 3
-15z"/>
<path d="M6805 564 c-14 -15 -14 -19 6 -52 31 -53 56 -72 94 -72 62 0 97 78
55 120 -26 26 -130 29 -155 4z"/>
</g>
</svg>
